<svg xmlns="http://www.w3.org/2000/svg" viewBox="0 0 600 400"><defs><style>.cls-1{fill:#1e242d;}.cls-2{fill:#98c1d9;}.cls-3,.cls-4{font-size:33.85px;font-family:Silom;}.cls-3{fill:#3d5a80;}.cls-4{fill:#fff;}.cls-5{fill:#e0fbfc;}.cls-6{fill:#d04423;}</style></defs><g id="Background"><rect class="cls-1" width="600" height="400"/></g><g id="Selector"><rect class="cls-2" x="356.05" y="257.28" width="10.97" height="7.31" rx="3.66" transform="translate(-78.62 332.07) rotate(-45)"/><rect class="cls-2" x="313.99" y="255.46" width="7.31" height="10.97" rx="3.66" transform="translate(-91.48 301.04) rotate(-45)"/><rect class="cls-2" x="364.75" y="275.42" width="7.31" height="10.97" rx="3.66" transform="matrix(0.32, -0.95, 0.95, 0.32, -16.25, 539.11)"/><rect class="cls-2" x="304.62" y="276.65" width="10.97" height="7.31" rx="3.66" transform="translate(-90.49 160.89) rotate(-25.51)"/><path class="cls-2" d="M377.6,142.36v13.42a3.41,3.41,0,0,0,.56,1.86l6.14,9.21V196a6.71,6.71,0,0,1-6.7,6.71V192.66h-6.71v13.41a6.72,6.72,0,0,1-6.7,6.71V199.37h-6.71v16.76a6.72,6.72,0,0,1-6.71,6.71V206.07h-6.7v40.24a3.36,3.36,0,0,1-6.71,0V186h-6.7v10.86a11.3,11.3,0,0,1-3.36-8.05V164.28l8.57-5.71a3.37,3.37,0,0,0,1.49-2.79V142.36h-6.7V154l-8.57,5.71a3.37,3.37,0,0,0-1.49,2.79v26.28a18,18,0,0,0,10.06,16.17v41.38a10.06,10.06,0,1,0,20.11,0V229.54a13.43,13.43,0,0,0,13-10.06h.43a13.42,13.42,0,0,0,13-10h.43A13.43,13.43,0,0,0,391,196V165.84a3.39,3.39,0,0,0-.56-1.86l-6.15-9.22v-12.4Z"/><rect class="cls-2" x="243.48" y="142.36" width="60.35" height="6.71" rx="3.35"/><rect class="cls-2" x="260.24" y="155.78" width="50.3" height="6.71" rx="3.35"/><rect class="cls-2" x="397.72" y="155.78" width="33.53" height="6.71" rx="3.35"/><rect class="cls-2" x="401.07" y="142.36" width="43.59" height="6.71" rx="3.35"/><text class="cls-3" transform="translate(67.95 92.36)">Colloquium Selector Robot</text><text class="cls-4" transform="translate(70.76 95.33)">Colloquium Selector Robot</text></g><g id="Personen"><circle class="cls-5" cx="150.08" cy="298.63" r="22.52"/><path class="cls-5" d="M150.08,325.76a199.53,199.53,0,0,0-22.54,1.3,6.71,6.71,0,0,0-4.94,3.13c-7,11.35-9.74,20.72-9.49,32.34a6.7,6.7,0,0,0,5.83,6.48,239.86,239.86,0,0,0,62.28,0,6.7,6.7,0,0,0,5.83-6.48c.25-11.62-2.5-21-9.49-32.34a6.71,6.71,0,0,0-4.94-3.13,199.53,199.53,0,0,0-22.54-1.3Z"/><circle class="cls-5" cx="449.92" cy="298.63" r="22.52"/><path class="cls-5" d="M449.92,325.76a199.53,199.53,0,0,0-22.54,1.3,6.71,6.71,0,0,0-4.94,3.13c-7,11.35-9.74,20.72-9.49,32.34a6.7,6.7,0,0,0,5.83,6.48,239.86,239.86,0,0,0,62.28,0,6.7,6.7,0,0,0,5.83-6.48c.25-11.62-2.5-21-9.49-32.34a6.71,6.71,0,0,0-4.94-3.13,199.53,199.53,0,0,0-22.54-1.3Z"/><circle class="cls-6" cx="338.44" cy="298.63" r="22.52"/><path class="cls-6" d="M338.44,325.76a199.53,199.53,0,0,0-22.54,1.3,6.71,6.71,0,0,0-4.94,3.13c-7,11.35-9.74,20.72-9.49,32.34A6.7,6.7,0,0,0,307.3,369a239.86,239.86,0,0,0,62.28,0,6.7,6.7,0,0,0,5.83-6.48c.25-11.62-2.5-21-9.49-32.34a6.71,6.71,0,0,0-4.94-3.13,199.53,199.53,0,0,0-22.54-1.3Z"/><circle class="cls-5" cx="241.96" cy="298.63" r="22.52"/><path class="cls-5" d="M242,325.76a199.53,199.53,0,0,0-22.54,1.3,6.71,6.71,0,0,0-4.94,3.13c-7,11.35-9.74,20.72-9.49,32.34a6.7,6.7,0,0,0,5.83,6.48,239.86,239.86,0,0,0,62.28,0,6.7,6.7,0,0,0,5.83-6.48c.25-11.62-2.5-21-9.49-32.34a6.71,6.71,0,0,0-4.94-3.13,199.53,199.53,0,0,0-22.54-1.3Z"/></g></svg>