<svg xmlns="http://www.w3.org/2000/svg" width="600" height="400" viewBox="0 0 600 400">
  <defs>
    <style>
      .cls-1 {
        fill: #6f7b87;
      }

      .cls-2, .cls-3 {
        fill: #8693ab;
      }

      .cls-2, .cls-4 {
        fill-rule: evenodd;
      }

      .cls-4, .cls-5 {
        fill: #bdd4e7;
      }

      .cls-6 {
        fill: #212227;
      }

      .cls-7 {
        fill: #fff;
      }
    </style>
  </defs>
  <title>GrandmaBot Thumbnail</title>
  <g id="Background">
    <g>
      <rect class="cls-1" x="0.5" y="0.5" width="599" height="399"/>
      <path d="M599,1V399H1V1H599m1-1H0V400H600V0Z"/>
    </g>
  </g>
  <g id="Headline">
    <g>
      <path class="cls-2" d="M255.09469,170.37373H230.58235a27.66583,27.66583,0,0,0-27.67524,27.6564q0,1.03959.07565,2.06042c.71508,19.27452-2.44781,20.85489-9.56429,25.596,7.9072,0,16.60513-3.16073,20.17267-5.82437a27.56779,27.56779,0,0,0,16.99121,5.82437h24.51234a27.65641,27.65641,0,1,0,0-55.31281Z"/>
      <rect class="cls-3" x="203.29615" y="170.37373" width="180.12119" height="55.31281" rx="19.49998"/>
    </g>
    <g>
      <path class="cls-4" d="M455.93513,238.15256h24.6668a27.84016,27.84016,0,0,1,27.84963,27.83067q0,1.04613-.07612,2.07341c-.71959,19.396,2.46323,20.9863,9.62456,25.75727-7.957,0-16.70977-3.18064-20.29979-5.86106a27.7415,27.7415,0,0,1-17.09828,5.86106h-24.6668a27.83068,27.83068,0,1,1,0-55.66135Z"/>
      <rect class="cls-5" x="258.19644" y="238.15256" width="249.76249" height="55.66136" rx="19.49998"/>
    </g>
    <g>
      <path d="M271.229,262.082h3.84229v1.04981l.04.01953a3.40937,3.40937,0,0,1,2.59424-1.248,3.59423,3.59423,0,0,1,.71289.0791v3.60449a5.20239,5.20239,0,0,0-1.06934-.11816,2.99122,2.99122,0,0,0-2.19824.81152v5.5459H271.229Z"/>
      <path d="M290.22217,271.291a9.63893,9.63893,0,0,1-3.80274.75293c-3.44629,0-5.80322-1.90137-5.80322-4.99122a5.11474,5.11474,0,0,1,5.28858-5.18847,4.6542,4.6542,0,0,1,4.87207,4.99023,7.82257,7.82257,0,0,1-.05957.99024h-6.11963a2.257,2.257,0,0,0,2.35644,1.38672,7.12957,7.12957,0,0,0,3.26807-.91114Zm-5.68408-5.46582h2.71337a1.33513,1.33513,0,0,0-1.36669-1.18848A1.35553,1.35553,0,0,0,284.53809,265.8252Z"/>
      <path d="M294.30176,267.96387v-2.792H292.856V262.082h1.4458v-2.43652l3.92187-.67383V262.082h2.33692v3.08985h-2.33692v2.51464c0,.77246.23731,1.208.97022,1.208a4.16462,4.16462,0,0,0,1.3667-.3164v2.99023a6.32013,6.32013,0,0,1-2.436.47559,4.04241,4.04241,0,0,1-2.87207-1.00977A3.98379,3.98379,0,0,1,294.30176,267.96387Z"/>
      <path d="M303.53125,268.14258V262.082h3.92188V267.627a1.18051,1.18051,0,0,0,.27734.93164,1.00047,1.00047,0,0,0,.73242.27735,1.9961,1.9961,0,0,0,1.30762-.55469V262.082h3.9209v9.74414h-3.8418v-.792l-.04-.02051a4.38159,4.38159,0,0,1-2.77246,1.03028,3.33738,3.33738,0,0,1-3.50586-3.90137Z"/>
      <path d="M317.1377,262.082h3.84179v1.04981l.04.01953a3.40883,3.40883,0,0,1,2.59473-1.248,3.60286,3.60286,0,0,1,.71289.0791v3.60449a5.206,5.206,0,0,0-1.06934-.11816,2.9949,2.9949,0,0,0-2.19922.81152v5.5459H317.1377Z"/>
      <path d="M327.09961,262.082h3.8418v.752l.04.02051a4.77766,4.77766,0,0,1,2.832-.99023,3.61423,3.61423,0,0,1,2.49609.93066,3.75133,3.75133,0,0,1,.9502,2.91113v6.12012h-3.92188v-5.52539a1.30958,1.30958,0,0,0-.27637-.93164,1.01969,1.01969,0,0,0-.75293-.27734,1.95239,1.95239,0,0,0-1.28711.51562v6.21875h-3.92187Z"/>
      <path d="M359.04492,266.30078a1.30491,1.30491,0,0,0-.27734-.93164,1.016,1.016,0,0,0-.752-.27734,1.93375,1.93375,0,0,0-1.18848.45605v6.27832h-3.92188v-5.52539a1.30491,1.30491,0,0,0-.27734-.93164,1.01823,1.01823,0,0,0-.75293-.27734,1.80512,1.80512,0,0,0-1.1875.47558v6.25879h-3.92187V262.082h3.84179v.71289l.04.01953a4.66753,4.66753,0,0,1,2.7334-.95019,3.42512,3.42512,0,0,1,2.77246,1.24707,5.31959,5.31959,0,0,1,3.36719-1.24707,3.62925,3.62925,0,0,1,2.51562.93066,3.82877,3.82877,0,0,1,.93067,2.91113v6.12012h-3.92188Z"/>
      <path d="M375.42383,271.291a9.63715,9.63715,0,0,1-3.80274.75293c-3.44629,0-5.80273-1.90137-5.80273-4.99122a5.11406,5.11406,0,0,1,5.28809-5.18847,4.6542,4.6542,0,0,1,4.87207,4.99023,7.7344,7.7344,0,0,1-.05957.99024h-6.12012a2.25865,2.25865,0,0,0,2.35742,1.38672,7.12625,7.12625,0,0,0,3.26758-.91114Zm-5.68457-5.46582h2.71387a1.335,1.335,0,0,0-1.36622-1.18848A1.3568,1.3568,0,0,0,369.73926,265.8252Z"/>
      <path d="M378.88867,268.20215a9.65078,9.65078,0,0,0,3.96094,1.1084c.47559,0,.71387-.11817.71387-.39551,0-.53516-.87207-.416-2.33789-.832-1.88086-.53516-2.73243-1.44629-2.73243-2.85254.01954-2.09863,1.96-3.36621,4.53516-3.36621a10.96449,10.96449,0,0,1,4.001.792v3.0498a9.62064,9.62064,0,0,0-3.86231-1.10937c-.47558,0-.67383.13867-.67383.377,0,.49512.8125.376,2.29786.792,1.88183.53515,2.77246,1.36621,2.77246,2.85156-.01953,2.17871-2.01953,3.42676-4.6543,3.42676a10.81907,10.81907,0,0,1-4.02051-.792Z"/>
      <path d="M390.25781,268.20215a9.65078,9.65078,0,0,0,3.96094,1.1084c.47559,0,.71387-.11817.71387-.39551,0-.53516-.87207-.416-2.33789-.832-1.88086-.53516-2.73243-1.44629-2.73243-2.85254.01954-2.09863,1.96-3.36621,4.53516-3.36621a10.96449,10.96449,0,0,1,4.001.792v3.0498a9.62064,9.62064,0,0,0-3.86231-1.10937c-.47558,0-.67383.13867-.67383.377,0,.49512.8125.376,2.29786.792,1.88183.53515,2.77246,1.36621,2.77246,2.85156-.01953,2.17871-2.01953,3.42676-4.6543,3.42676a10.81907,10.81907,0,0,1-4.02051-.792Z"/>
      <path d="M402.39844,271.42969a2.6793,2.6793,0,0,1-1.248-2.33692,2.83964,2.83964,0,0,1,1.14941-2.33691,4.65407,4.65407,0,0,1,2.7334-.73242,7.08194,7.08194,0,0,1,1.48535.1582V266.043a.92553.92553,0,0,0-.27734-.71289,1.934,1.934,0,0,0-1.30762-.35645,7.53016,7.53016,0,0,0-2.832.65332v-3.0498a9.1129,9.1129,0,0,1,3.60449-.71289,5.94363,5.94363,0,0,1,3.5254.95019,3.188,3.188,0,0,1,1.208,2.793v2.8125c0,.39551.13868.63379.49512.63379a1.044,1.044,0,0,0,.45606-.11914v2.69336a3.92509,3.92509,0,0,1-1.8418.377,3.70231,3.70231,0,0,1-2.27832-.65429h-.03906a4.80217,4.80217,0,0,1-2.53516.69336A4.10555,4.10555,0,0,1,402.39844,271.42969Zm4.12011-2.11914v-1.208a3.20457,3.20457,0,0,0-.57421-.05957c-.51563,0-.99121.19824-.99121.71289,0,.47559.416.69336.87207.69336A1.97034,1.97034,0,0,0,406.51855,269.31055Z"/>
      <path d="M414.99414,272.32129a6.78991,6.78991,0,0,0,3.248.9707c1.24707,0,1.94043-.55469,1.94043-1.78222v-.416l-.03907-.04a3.59972,3.59972,0,0,1-2.08007.59375,4.50364,4.50364,0,0,1-4.45606-4.69336,5.00224,5.00224,0,0,1,5.18946-5.08984,5.65154,5.65154,0,0,1,2.45507.55371l2.85254-.49512v9.626c0,3.16894-2.29785,4.85254-5.5459,4.85254a9.05786,9.05786,0,0,1-3.56445-.69336Zm4.23828-3.60449a2.36744,2.36744,0,0,0,.9502-.21778v-3.34765a2.02271,2.02271,0,0,0-.8711-.17774,1.88032,1.88032,0,0,0-.0791,3.74317Z"/>
      <path d="M436.60156,271.291a9.63706,9.63706,0,0,1-3.80273.75293c-3.44629,0-5.80274-1.90137-5.80274-4.99122a5.11406,5.11406,0,0,1,5.28809-5.18847,4.6542,4.6542,0,0,1,4.87207,4.99023,7.73259,7.73259,0,0,1-.05957.99024h-6.12012a2.25865,2.25865,0,0,0,2.35742,1.38672,7.12622,7.12622,0,0,0,3.26758-.91114ZM430.917,265.8252h2.71387a1.335,1.335,0,0,0-1.36621-1.18848A1.35681,1.35681,0,0,0,430.917,265.8252Z"/>
      <path d="M445.63281,273.39063v2.65429h-5.28808V257.11035h5.28808v2.6543h-1.66308v13.626Z"/>
      <path d="M450.12891,257.12988h2.39648l-1.18848,5.74414h-3.209Zm4.0205,0h2.39649l-1.18848,5.74414h-3.209Z"/>
      <path d="M459.69336,257.48633h4.08008v5.16992h5.11035v-5.16992h4.0791v14.33984h-4.0791v-5.72363h-5.11035v5.72363h-4.08008Z"/>
      <path d="M485.55957,271.291a9.63714,9.63714,0,0,1-3.80273.75293c-3.44629,0-5.80274-1.90137-5.80274-4.99122a5.11406,5.11406,0,0,1,5.28809-5.18847,4.6542,4.6542,0,0,1,4.87207,4.99023,7.73259,7.73259,0,0,1-.05957.99024h-6.12012a2.25865,2.25865,0,0,0,2.35742,1.38672,7.12622,7.12622,0,0,0,3.26758-.91114ZM479.875,265.8252h2.71387a1.335,1.335,0,0,0-1.36621-1.18848A1.35681,1.35681,0,0,0,479.875,265.8252Z"/>
      <path d="M491.30371,267.80566a2.11924,2.11924,0,1,1-2.13965,2.11914A2.12584,2.12584,0,0,1,491.30371,267.80566Z"/>
      <path d="M499.10645,267.80566a2.11924,2.11924,0,1,1-2.13965,2.11914A2.12584,2.12584,0,0,1,499.10645,267.80566Z"/>
    </g>
    <g>
      <path d="M216.80273,189.5332h4.08008v5.16944h5.10987V189.5332h4.08007v14.33985h-4.08007v-5.72461h-5.10987v5.72461h-4.08008Z"/>
      <path d="M238.6875,193.91016c3.26807,0,5.625,2.21826,5.625,5.09033,0,2.87158-2.35693,5.09033-5.625,5.09033s-5.625-2.21875-5.625-5.09033C233.0625,196.12842,235.41943,193.91016,238.6875,193.91016Zm0,6.91211a1.82383,1.82383,0,1,0-1.74268-1.82178A1.7399,1.7399,0,0,0,238.6875,200.82227Z"/>
      <path d="M245.93652,194.12793h3.981l.65381,2.21826c.29687,1.01026.5542,1.96094.792,2.8916h.03955c.21778-.91113.45557-1.88134.73291-2.8916l.61377-2.21826h2.99072l.61426,2.21826c.27735,1.01026.51465,1.94092.73291,2.8916h.03955c.23731-.95068.51465-1.9209.792-2.8916l.6538-2.21826h3.6836l-3.30762,9.74512h-3.54492l-.436-1.56446c-.27734-1.01074-.57422-2.13964-.812-3.11035h-.03955c-.23779.97071-.53467,2.08008-.812,3.11035l-.43555,1.56446h-3.64453Z"/>
      <path d="M271.36621,203.47656a2.6789,2.6789,0,0,1-1.24756-2.33691,2.83894,2.83894,0,0,1,1.14893-2.3374,4.65479,4.65479,0,0,1,2.73291-.73291,7.107,7.107,0,0,1,1.48535.15869v-.13867a.92552.92552,0,0,0-.27686-.7129,1.93571,1.93571,0,0,0-1.30761-.35693,7.52581,7.52581,0,0,0-2.832.65381v-3.05029a9.132,9.132,0,0,1,3.60449-.71289,5.94259,5.94259,0,0,1,3.52539.95068,3.18971,3.18971,0,0,1,1.20849,2.79248v2.8125c0,.396.13868.63379.49512.63379a1.03593,1.03593,0,0,0,.45557-.11865v2.69384a3.93741,3.93741,0,0,1-1.84229.376,3.69769,3.69769,0,0,1-2.27734-.65332h-.03955a4.80457,4.80457,0,0,1-2.53516.69336A4.10547,4.10547,0,0,1,271.36621,203.47656Zm4.11963-2.11914v-1.20849a3.14377,3.14377,0,0,0-.57422-.05909c-.51514,0-.99023.19776-.99023.71289,0,.47559.416.69336.87158.69336A1.96544,1.96544,0,0,0,275.48584,201.35742Z"/>
      <path d="M283.05078,194.12793h3.84229v1.0498l.03955.02a3.412,3.412,0,0,1,2.59472-1.248,3.55357,3.55357,0,0,1,.71289.0791v3.605a5.20635,5.20635,0,0,0-1.06933-.11914,2.98969,2.98969,0,0,0-2.19824.812v5.54639h-3.92188Z"/>
      <path d="M302.04492,203.33789a9.64291,9.64291,0,0,1-3.80322.75293c-3.44629,0-5.80322-1.90137-5.80322-4.9917a5.11484,5.11484,0,0,1,5.28857-5.189,4.65484,4.65484,0,0,1,4.87256,4.99121,7.74328,7.74328,0,0,1-.06055.99023h-6.11914a2.25763,2.25763,0,0,0,2.35645,1.38672,7.128,7.128,0,0,0,3.26855-.91162Zm-5.68457-5.46631h2.71338a1.33513,1.33513,0,0,0-1.3667-1.18847A1.35552,1.35552,0,0,0,296.36035,197.87158Z"/>
      <path d="M311.80859,208.23047l2.61426-5.42676-3.88183-8.67578h4.04l1.72266,4.69434h.04l1.88184-4.69434h3.70312l-6.19922,14.10254Z"/>
      <path d="M328.93945,193.91016c3.26758,0,5.625,2.21826,5.625,5.09033,0,2.87158-2.35742,5.09033-5.625,5.09033-3.26855,0-5.625-2.21875-5.625-5.09033C323.31445,196.12842,325.6709,193.91016,328.93945,193.91016Zm0,6.91211a1.82381,1.82381,0,1,0-1.74316-1.82178A1.73941,1.73941,0,0,0,328.93945,200.82227Z"/>
      <path d="M337.416,200.18848v-6.06055h3.92187v5.5459a1.17868,1.17868,0,0,0,.27734.93066.99658.99658,0,0,0,.73243.27735,1.99129,1.99129,0,0,0,1.30761-.55469v-6.19922h3.9209v9.74512h-3.84179v-.792l-.04-.0205a4.38712,4.38712,0,0,1-2.77246,1.03027,3.33756,3.33756,0,0,1-3.50586-3.90234Z"/>
      <path d="M351.69531,195.73242c1.80274,0,3.56543-.29736,3.56543-1.72314,0-.812-.55469-1.46582-1.68359-1.46582a4.29373,4.29373,0,0,0-2.377.87158l-.39551-3.2876a7.23492,7.23492,0,0,1,3.32715-.812c2.73339,0,5.14941,1.74268,5.14941,4.3374a4.36924,4.36924,0,0,1-3.64453,4.19873l-.05957,1.34668h-3.46582Zm2.45606,4.27783a2.04038,2.04038,0,1,1-2.05957,2.04053A2.04161,2.04161,0,0,1,354.15137,200.01025Z"/>
    </g>
    <circle class="cls-6" cx="134.92295" cy="210.21559" r="52.92295"/>
    <g>
      <path class="cls-7" d="M147.11379,224.64912h-2.52587a3.62139,3.62139,0,1,0-5.89369-4.20978,3.82252,3.82252,0,0,0,0,4.20978h-8.90068a3.62139,3.62139,0,1,0-5.89369-4.20978,3.82252,3.82252,0,0,0,0,4.20978H121.374a1.13636,1.13636,0,0,0-1.20279,1.20279,6.67408,6.67408,0,0,0,6.61536,6.61537,6.58463,6.58463,0,0,0,6.49509-5.41257h1.68392a6.56566,6.56566,0,0,0,7.69788,5.29229,6.68152,6.68152,0,0,0,5.41258-6.49509A.91149.91149,0,0,0,147.11379,224.64912Zm-5.41258-3.24755a1.2028,1.2028,0,1,1-1.20279,1.2028,1.20531,1.20531,0,0,1,1.20279-1.2028Zm-14.67409,0a1.2028,1.2028,0,1,1-1.20279,1.2028,1.13637,1.13637,0,0,1,1.20279-1.2028Zm0,8.66012a4.37052,4.37052,0,0,1-4.0895-3.007h8.05873A4.11421,4.11421,0,0,1,127.02712,230.06169Zm14.67409,0a4.37052,4.37052,0,0,1-4.0895-3.007h8.05872A4.01146,4.01146,0,0,1,141.70121,230.06169Z"/>
      <path class="cls-7" d="M151.32357,188.08417a17.12911,17.12911,0,0,0-16.358-15.7566,16.89876,16.89876,0,0,0-17.44052,15.7566,30.64613,30.64613,0,0,0-13.95241,25.7398,20.00061,20.00061,0,0,0,11.186,17.92164c4.33006,10.58459,11.66711,17.56079,19.96639,17.56079s15.87688-7.09649,20.08666-18.04191a19.94333,19.94333,0,0,0,10.344-17.44052A30.82787,30.82787,0,0,0,151.32357,188.08417ZM124.381,178.70238a14.302,14.302,0,0,1,10.46431-3.96922,14.75086,14.75086,0,0,1,13.83213,11.78738,29.99847,29.99847,0,0,0-14.31325-3.4881,31.45542,31.45542,0,0,0-14.31325,3.4881A14.09261,14.09261,0,0,1,124.381,178.70238Zm10.344,68.19843c-10.94543,0-20.08667-14.07269-21.16918-32.47544a35.99261,35.99261,0,0,0,10.10347,1.44335c7.5776,0,14.67409-2.40559,19.60554-6.49509A17.554,17.554,0,0,0,155.05223,221.161C152.40608,236.4365,144.1068,246.90081,134.725,246.90081Zm21.40973-19.365a45.094,45.094,0,0,0,1.56364-6.97621,1.19174,1.19174,0,0,0-.96224-1.32307,14.87591,14.87591,0,0,1-11.54682-12.14822,1.24756,1.24756,0,0,0-1.44336-.96224.66143.66143,0,0,0-.60139.36084c-4.45034,4.45034-11.78739,7.21676-19.48527,7.21676a30.86653,30.86653,0,0,1-10.94543-1.92447,1.25122,1.25122,0,0,0-1.56363.72168c0,.12028-.12028.24056-.12028.48112a56.46582,56.46582,0,0,0,2.52587,15.39576,17.62641,17.62641,0,0,1-7.57761-14.43353,28.38595,28.38595,0,0,1,56.77189,0h0A17.88822,17.88822,0,0,1,156.13474,227.53583Z"/>
    </g>
    <g>
      <path class="cls-7" d="M175.7666,111.50244a21.20032,21.20032,0,0,1,9.34375,2.13672v8.33838a18.05815,18.05815,0,0,0-9.00879-2.80713c-5.40527,0-8.71582,3.56152-8.71582,8.12842,0,4.4834,3.22656,8.1709,8.54785,8.1709a7.98664,7.98664,0,0,0,1.84375-.20948v-3.22656h-4.14843v-6.32715h12.4873v14.875a24.55863,24.55863,0,0,1-10.18262,2.17871c-10.30761,0-17.17871-6.62011-17.17871-15.46142C158.75488,118.29,165.91992,111.50244,175.7666,111.50244Z"/>
      <path class="cls-7" d="M193.40137,121.68408h8.1289v2.22071l.084.042a7.21754,7.21754,0,0,1,5.48926-2.63965,7.53786,7.53786,0,0,1,1.50781.16748v7.626a11.00173,11.00173,0,0,0-2.2627-.25147,6.32473,6.32473,0,0,0-4.65039,1.71777v11.73243h-8.29687Z"/>
      <path class="cls-7" d="M214.85156,141.46143a5.6703,5.6703,0,0,1-2.63965-4.94434,6.00579,6.00579,0,0,1,2.43067-4.94434,9.84918,9.84918,0,0,1,5.78222-1.55029,15.061,15.061,0,0,1,3.14258.335v-.293a1.95893,1.95893,0,0,0-.58691-1.5083,4.09164,4.09164,0,0,0-2.76563-.75439,15.92638,15.92638,0,0,0-5.99121,1.38281v-6.45264a19.29568,19.29568,0,0,1,7.626-1.50879,12.5734,12.5734,0,0,1,7.458,2.01124c1.84375,1.38281,2.55566,3.31005,2.55566,5.9082v5.94971c0,.83789.293,1.34082,1.04785,1.34082a2.20057,2.20057,0,0,0,.96387-.25147v5.69873a8.31789,8.31789,0,0,1-3.89746.7959,7.82359,7.82359,0,0,1-4.81836-1.38281h-.084a10.15379,10.15379,0,0,1-5.36329,1.46679A8.68732,8.68732,0,0,1,214.85156,141.46143Zm8.71582-4.4834v-2.55615a6.67424,6.67424,0,0,0-1.21582-.12549c-1.08886,0-2.09472.41894-2.09472,1.5083,0,1.00586.87988,1.46631,1.84375,1.46631A4.15878,4.15878,0,0,0,223.56738,136.978Z"/>
      <path class="cls-7" d="M239.61035,121.68408h8.12891v1.59229l.084.042a10.10876,10.10876,0,0,1,5.99121-2.09522,7.64848,7.64848,0,0,1,5.28028,1.96973c1.34082,1.29883,2.01074,3.14209,2.01074,6.15918v12.94727h-8.2959V130.60889a2.76188,2.76188,0,0,0-.58691-1.96924,2.14756,2.14756,0,0,0-1.5918-.58643,4.14,4.14,0,0,0-2.72363,1.08936v13.15674h-8.29688Z"/>
      <path class="cls-7" d="M278.07031,121.22314a9.197,9.197,0,0,1,3.35254.58692l.084-.042v-11.481h8.29589v32.01221h-8.1289V141.252l-.084-.042a8.25051,8.25051,0,0,1-4.94336,1.55029c-4.94433,0-9.42773-3.93847-9.42773-10.30761C267.21875,125.87451,272.03711,121.22314,278.07031,121.22314Zm1.13184,15.08448a5.338,5.338,0,0,0,2.30469-.54492v-7.542a5.11728,5.11728,0,0,0-2.05371-.41894c-2.72364,0-3.8545,1.96924-3.8545,4.27392C275.59863,134.46387,276.81348,136.30762,279.20215,136.30762Z"/>
      <path class="cls-7" d="M323.15137,130.60889a2.76183,2.76183,0,0,0-.58692-1.96924,2.14752,2.14752,0,0,0-1.59179-.58643,4.09291,4.09291,0,0,0-2.51465.96338v13.28272h-8.2959V130.60889a2.76188,2.76188,0,0,0-.58691-1.96924,2.14756,2.14756,0,0,0-1.5918-.58643,3.82163,3.82163,0,0,0-2.51465,1.00537v13.24073h-8.2959V121.68408h8.12891v1.50879l.084.04151a9.8704,9.8704,0,0,1,5.78223-2.01124,7.24848,7.24848,0,0,1,5.86621,2.63965,11.25613,11.25613,0,0,1,7.12305-2.63965,7.68,7.68,0,0,1,5.32129,1.96973c1.29882,1.29883,1.96875,3.14209,1.96875,6.15918v12.94727h-8.2959Z"/>
      <path class="cls-7" d="M340.07227,141.46143a5.6703,5.6703,0,0,1-2.63965-4.94434,6.00769,6.00769,0,0,1,2.42968-4.94434,9.85308,9.85308,0,0,1,5.78223-1.55029,15.04664,15.04664,0,0,1,3.14258.335v-.293a1.95817,1.95817,0,0,0-.58594-1.5083,4.09162,4.09162,0,0,0-2.76562-.75439,15.93589,15.93589,0,0,0-5.99219,1.38281v-6.45264a19.29949,19.29949,0,0,1,7.626-1.50879,12.57454,12.57454,0,0,1,7.459,2.01124c1.84277,1.38281,2.55566,3.31005,2.55566,5.9082v5.94971c0,.83789.293,1.34082,1.04786,1.34082a2.19344,2.19344,0,0,0,.96289-.25147v5.69873a8.31356,8.31356,0,0,1-3.89649.7959,7.82361,7.82361,0,0,1-4.81836-1.38281h-.084a10.15883,10.15883,0,0,1-5.36328,1.46679A8.68509,8.68509,0,0,1,340.07227,141.46143Zm8.71484-4.4834v-2.55615a6.67287,6.67287,0,0,0-1.21484-.12549c-1.08887,0-2.09473.41894-2.09473,1.5083,0,1.00586.87988,1.46631,1.84375,1.46631A4.15344,4.15344,0,0,0,348.78711,136.978Z"/>
      <path class="cls-7" d="M364.999,111.96338h9.38575c4.81836,0,7.793.54443,9.88867,1.71777a6.56533,6.56533,0,0,1,3.64453,5.90821c0,2.84912-1.63379,4.69287-4.6084,5.82421v.0835c4.23145,1.42481,5.86621,4.10645,5.86621,7.4585a8.15705,8.15705,0,0,1-5.28027,7.79345,22.23313,22.23313,0,0,1-9.04981,1.5503H364.999Zm10.47461,12.10937c2.59766,0,3.81348-.79638,3.81348-2.64013a2.14946,2.14946,0,0,0-1.25781-2.13672,7.59805,7.59805,0,0,0-3.39356-.46094h-1.00586v5.23779Zm-.58593,11.355c2.47168,0,3.72851-.20947,4.4414-.58691a2.37659,2.37659,0,0,0,1.21485-2.3042c0-2.05322-1.42481-2.9331-4.19043-2.9331h-2.72364v5.82421Z"/>
      <path class="cls-7" d="M405.7207,121.22314c6.91407,0,11.90039,4.69288,11.90039,10.76856s-4.98632,10.76855-11.90039,10.76855c-6.91308,0-11.89941-4.69287-11.89941-10.76855S398.80762,121.22314,405.7207,121.22314Zm0,14.62354a3.85878,3.85878,0,1,0-3.6875-3.855A3.68165,3.68165,0,0,0,405.7207,135.84668Z"/>
      <path class="cls-7" d="M425.15918,134.12891V128.2207h-3.05859v-6.53662h3.05859v-5.15381l8.2959-1.42431v6.57812h4.94433v6.53662h-4.94433V133.542c0,1.63428.50293,2.55615,2.05371,2.55615a8.80286,8.80286,0,0,0,2.89062-.67041v6.32666a13.37657,13.37657,0,0,1-5.15332,1.00586,8.55243,8.55243,0,0,1-6.07617-2.13671C425.99707,139.4502,425.15918,137.69043,425.15918,134.12891Z"/>
    </g>
  </g>
</svg>
