<svg xmlns="http://www.w3.org/2000/svg" width="600" height="400" viewBox="0 0 600 400">
  <defs>
    <style>
      .cls-1 {
        fill: #6f7b87;
      }

      .cls-2, .cls-3 {
        fill: #8693ab;
      }

      .cls-2, .cls-4 {
        fill-rule: evenodd;
      }

      .cls-4, .cls-5 {
        fill: #bdd4e7;
      }

      .cls-6 {
        fill: #212227;
      }

      .cls-7 {
        fill: #fff;
      }
    </style>
  </defs>
  <title>GrandmaBot Thumbnail</title>
  <g id="Background">
    <g>
      <rect class="cls-1" x="0.5" y="0.5" width="599" height="399"/>
      <path d="M599,1V399H1V1H599m1-1H0V400H600V0Z"/>
    </g>
  </g>
  <g id="Headline">
    <g>
      <g>
        <path class="cls-2" d="M245.41327,161.49382H215.61616a33.63048,33.63048,0,0,0-33.64192,33.619q0,1.26372.092,2.50464c.86924,23.43-2.97554,25.35113-11.62632,31.11439,9.612,0,20.18514-3.84217,24.52183-7.08008a33.51128,33.51128,0,0,0,20.65445,7.08008h29.79711a33.619,33.619,0,1,0,0-67.238Z"/>
        <rect class="cls-3" x="182.44716" y="161.49382" width="218.95466" height="67.23804" rx="19.49998"/>
      </g>
      <g>
        <path class="cls-4" d="M489.55417,243.88551h29.98488A33.8424,33.8424,0,0,1,553.393,277.71638q0,1.27168-.09254,2.52043c-.87473,23.57768,2.99429,25.51087,11.69958,31.31044-9.67254,0-20.31234-3.86638-24.67635-7.12469a33.72247,33.72247,0,0,1-20.7846,7.12469H489.55417a33.83088,33.83088,0,1,1,0-67.66174Z"/>
        <rect class="cls-5" x="249.18374" y="243.88551" width="303.61037" height="67.66174" rx="19.49998"/>
      </g>
      <g>
        <path d="M265.02608,272.9741h4.67067v1.27614l.04867.02374a4.14441,4.14441,0,0,1,3.15355-1.51712,4.36921,4.36921,0,0,1,.86659.09615v4.38161a6.32365,6.32365,0,0,0-1.29989-.14364,3.63612,3.63612,0,0,0-2.67217.98648V284.819h-4.76742Z"/>
        <path d="M288.1141,284.1685a11.71686,11.71686,0,0,1-4.62259.91526c-4.18929,0-7.05437-2.31129-7.05437-6.0673a6.21745,6.21745,0,0,1,6.42877-6.30709,5.65763,5.65763,0,0,1,5.92247,6.06611,9.51038,9.51038,0,0,1-.07241,1.20373h-7.439a2.74362,2.74362,0,0,0,2.86448,1.68569,8.66664,8.66664,0,0,0,3.97265-1.10757Zm-6.90955-6.64423h3.29838a1.623,1.623,0,0,0-1.66136-1.4447A1.64777,1.64777,0,0,0,281.20455,277.52427Z"/>
        <path d="M293.07324,280.124V276.7301h-1.75751v-3.756h1.75751v-2.96183l4.76741-.81911v3.78094h2.84075v3.756h-2.84075v3.0568c0,.939.28847,1.46845,1.17939,1.46845a5.06214,5.06214,0,0,0,1.66136-.38463v3.63492a7.6826,7.6826,0,0,1-2.96124.57812,4.91392,4.91392,0,0,1-3.49127-1.22746C293.5552,283.182,293.07324,282.1706,293.07324,280.124Z"/>
        <path d="M304.29257,280.34127V272.9741H309.06v6.74038a1.435,1.435,0,0,0,.33714,1.1325,1.21616,1.21616,0,0,0,.89033.33714,2.42642,2.42642,0,0,0,1.58953-.67428V272.9741h4.76623V284.819h-4.67007v-.96274l-.04867-.02493a5.32633,5.32633,0,0,1-3.3702,1.25239,4.0569,4.0569,0,0,1-4.26171-4.74249Z"/>
        <path d="M320.83252,272.9741h4.67007v1.27614l.04868.02374a4.14373,4.14373,0,0,1,3.15414-1.51712,4.37968,4.37968,0,0,1,.86658.09615v4.38161a6.32793,6.32793,0,0,0-1.29988-.14364,3.64058,3.64058,0,0,0-2.67336.98648V284.819h-4.76623Z"/>
        <path d="M332.94219,272.9741h4.67007v.91407l.04867.02493a5.80771,5.80771,0,0,1,3.44261-1.20373,4.39342,4.39342,0,0,1,3.03424,1.13131,4.56015,4.56015,0,0,1,1.155,3.53877V284.819h-4.76741v-6.71665a1.592,1.592,0,0,0-.336-1.1325,1.23956,1.23956,0,0,0-.91526-.33713,2.3733,2.3733,0,0,0-1.56461.62679V284.819h-4.76741Z"/>
        <path d="M371.77479,278.10239a1.58625,1.58625,0,0,0-.33714-1.1325,1.235,1.235,0,0,0-.91407-.33713,2.35069,2.35069,0,0,0-1.44471.55437V284.819h-4.76741v-6.71665a1.58625,1.58625,0,0,0-.33714-1.1325,1.23774,1.23774,0,0,0-.91526-.33713,2.1943,2.1943,0,0,0-1.44353.57812V284.819h-4.76741V272.9741h4.67008v.86658l.04867.02375a5.67371,5.67371,0,0,1,3.32271-1.15506,4.16358,4.16358,0,0,1,3.37019,1.51594,6.46647,6.46647,0,0,1,4.09314-1.51594,4.41173,4.41173,0,0,1,3.058,1.13131,4.65428,4.65428,0,0,1,1.13131,3.53877V284.819h-4.76742Z"/>
        <path d="M391.68493,284.1685a11.71472,11.71472,0,0,1-4.62259.91526c-4.1893,0-7.05378-2.31129-7.05378-6.0673a6.21662,6.21662,0,0,1,6.42817-6.30709,5.65763,5.65763,0,0,1,5.92247,6.06611,9.40018,9.40018,0,0,1-.07241,1.20373H384.8472a2.7456,2.7456,0,0,0,2.86567,1.68569,8.66265,8.66265,0,0,0,3.97206-1.10757Zm-6.91014-6.64423h3.299a1.62282,1.62282,0,0,0-1.66076-1.4447A1.64932,1.64932,0,0,0,384.77479,277.52427Z"/>
        <path d="M395.89678,280.41369a11.73141,11.73141,0,0,0,4.8149,1.34736c.57812,0,.86778-.14364.86778-.48077,0-.65054-1.06009-.50571-2.84194-1.01142-2.28636-.65053-3.32152-1.7581-3.32152-3.46753.02374-2.55109,2.38252-4.092,5.51292-4.092a13.32852,13.32852,0,0,1,4.86357.96274v3.70734a11.69465,11.69465,0,0,0-4.695-1.34856c-.57812,0-.8191.16857-.8191.45823,0,.60186.98767.457,2.79326.96274,2.28755.65053,3.37019,1.66076,3.37019,3.46635-.02374,2.64843-2.45493,4.16555-5.65775,4.16555a13.15156,13.15156,0,0,1-4.88731-.96274Z"/>
        <path d="M409.71707,280.41369a11.73137,11.73137,0,0,0,4.8149,1.34736c.57812,0,.86777-.14364.86777-.48077,0-.65054-1.06008-.50571-2.84193-1.01142-2.28637-.65053-3.32152-1.7581-3.32152-3.46753.02374-2.55109,2.38252-4.092,5.51292-4.092a13.32856,13.32856,0,0,1,4.86357.96274v3.70734a11.69469,11.69469,0,0,0-4.695-1.34856c-.57812,0-.81911.16857-.81911.45823,0,.60186.98768.457,2.79326.96274,2.28756.65053,3.3702,1.66076,3.3702,3.46635-.02375,2.64843-2.45494,4.16555-5.65775,4.16555a13.15152,13.15152,0,0,1-4.88731-.96274Z"/>
        <path d="M424.47516,284.33707a3.25693,3.25693,0,0,1-1.51712-2.84074,3.45187,3.45187,0,0,1,1.39723-2.84075,5.65751,5.65751,0,0,1,3.32271-.89032,8.60852,8.60852,0,0,1,1.80558.19231V277.789a1.12508,1.12508,0,0,0-.33713-.86659,2.351,2.351,0,0,0-1.58954-.43329,9.15359,9.15359,0,0,0-3.44261.79417V273.576a11.07766,11.07766,0,0,1,4.38161-.86659,7.22493,7.22493,0,0,1,4.28545,1.15506,3.87529,3.87529,0,0,1,1.46845,3.39512v3.41886c0,.48078.16857.77043.60187.77043a1.26908,1.26908,0,0,0,.55437-.14482v3.274a4.77129,4.77129,0,0,1-2.23888.45822,4.50047,4.50047,0,0,1-2.76951-.79536h-.04749a5.83736,5.83736,0,0,1-3.08173.84284A4.99065,4.99065,0,0,1,424.47516,284.33707Zm5.0084-2.576V280.2926a3.89554,3.89554,0,0,0-.698-.07241c-.6268,0-1.20492.241-1.20492.86659,0,.57812.50571.84284,1.06009.84284A2.39508,2.39508,0,0,0,429.48356,281.76105Z"/>
        <path d="M439.78646,285.4209a8.25378,8.25378,0,0,0,3.94831,1.18c1.51593,0,2.35878-.67427,2.35878-2.16646v-.50571l-.04749-.04867a4.37594,4.37594,0,0,1-2.52853.72176,5.4746,5.4746,0,0,1-5.41676-5.70523,6.08071,6.08071,0,0,1,6.30828-6.1872,6.8702,6.8702,0,0,1,2.98438.67309l3.46754-.60186v11.7013c0,3.85216-2.79326,5.89873-6.74158,5.89873a11.01043,11.01043,0,0,1-4.33293-.84285Zm5.152-4.38161a2.87795,2.87795,0,0,0,1.15506-.26472v-4.0694a2.45889,2.45889,0,0,0-1.0589-.216,2.28571,2.28571,0,0,0-.09616,4.55017Z"/>
        <path d="M466.05236,284.1685a11.71475,11.71475,0,0,1-4.62259.91526c-4.1893,0-7.05378-2.31129-7.05378-6.0673a6.21662,6.21662,0,0,1,6.42817-6.30709,5.65763,5.65763,0,0,1,5.92247,6.06611,9.40018,9.40018,0,0,1-.07241,1.20373h-7.43959a2.7456,2.7456,0,0,0,2.86567,1.68569,8.66265,8.66265,0,0,0,3.97206-1.10757Zm-6.91014-6.64423h3.299a1.62282,1.62282,0,0,0-1.66076-1.4447A1.64932,1.64932,0,0,0,459.14222,277.52427Z"/>
        <path d="M477.03071,286.72078v3.22656h-6.42818v-23.0168h6.42818v3.22655h-2.02164v16.56369Z"/>
        <path d="M482.49615,266.95428h2.91316l-1.44471,6.98256h-3.90083Zm4.88731,0h2.91316l-1.44471,6.98256h-3.90083Z"/>
        <path d="M494.12266,267.38758h4.95973v6.28453h6.21212v-6.28453h4.95855V284.819h-4.95855v-6.95763h-6.21212V284.819h-4.95973Z"/>
        <path d="M525.56553,284.1685a11.71472,11.71472,0,0,1-4.62259.91526c-4.18929,0-7.05378-2.31129-7.05378-6.0673a6.21663,6.21663,0,0,1,6.42818-6.30709,5.65763,5.65763,0,0,1,5.92247,6.06611,9.40018,9.40018,0,0,1-.07241,1.20373h-7.4396a2.74562,2.74562,0,0,0,2.86568,1.68569,8.66261,8.66261,0,0,0,3.972-1.10757Zm-6.91014-6.64423h3.299a1.62283,1.62283,0,0,0-1.66076-1.4447A1.64932,1.64932,0,0,0,518.65539,277.52427Z"/>
        <path d="M532.54809,279.93172a2.57614,2.57614,0,1,1-2.601,2.576A2.58416,2.58416,0,0,1,532.54809,279.93172Z"/>
        <path d="M542.03306,279.93172a2.57614,2.57614,0,1,1-2.60094,2.576A2.58417,2.58417,0,0,1,542.03306,279.93172Z"/>
      </g>
      <g>
        <path d="M198.86571,184.784h4.95973V191.068H210.037V184.784h4.95973v17.43146H210.037v-6.95882h-6.21153v6.95882h-4.95973Z"/>
        <path d="M225.46874,190.10462c3.97266,0,6.83773,2.69651,6.83773,6.18778,0,3.49069-2.86507,6.18779-6.83773,6.18779s-6.83773-2.6971-6.83773-6.18779C218.631,192.80113,221.4961,190.10462,225.46874,190.10462Zm0,8.40233a2.217,2.217,0,1,0-2.11838-2.21455A2.115,2.115,0,0,0,225.46874,198.507Z"/>
        <path d="M234.28064,190.36934h4.83923l.79477,2.69651c.36088,1.22806.67368,2.38371.96274,3.515h.04808c.26473-1.10757.55379-2.287.89092-3.515l.7461-2.69651H246.198l.74669,2.69651c.33714,1.22806.62561,2.35937.89092,3.515h.04808c.28847-1.15565.62561-2.335.96274-3.515l.79477-2.69651H254.119l-4.02072,11.84613H245.789l-.53-1.90174c-.33714-1.22866-.698-2.60095-.98708-3.78094h-.04808c-.28906,1.18-.64994,2.52854-.98707,3.78094l-.52945,1.90174H238.277Z"/>
        <path d="M265.19287,201.7335a3.25645,3.25645,0,0,1-1.51653-2.84074,3.451,3.451,0,0,1,1.39663-2.84134,5.65844,5.65844,0,0,1,3.32212-.89092,8.63932,8.63932,0,0,1,1.80559.1929v-.16857a1.125,1.125,0,0,0-.33655-.86658,2.353,2.353,0,0,0-1.58953-.43389,9.14831,9.14831,0,0,0-3.44261.79477V190.9712a11.10108,11.10108,0,0,1,4.38161-.86658,7.22382,7.22382,0,0,1,4.28545,1.15564,3.87742,3.87742,0,0,1,1.469,3.39453v3.41887c0,.48137.16857.77043.60187.77043a1.25923,1.25923,0,0,0,.55378-.14424v3.27464a4.78644,4.78644,0,0,1-2.23947.457,4.49494,4.49494,0,0,1-2.76833-.79417h-.04808a5.84045,5.84045,0,0,1-3.08173.84284A4.99061,4.99061,0,0,1,265.19287,201.7335Zm5.00781-2.576v-1.469a3.82123,3.82123,0,0,0-.698-.07182c-.6262,0-1.20373.24039-1.20373.86659,0,.57812.50571.84284,1.0595.84284A2.38907,2.38907,0,0,0,270.20068,199.15748Z"/>
        <path d="M279.39659,190.36934h4.67067v1.27614l.04808.02433a4.1476,4.1476,0,0,1,3.15414-1.51712,4.31947,4.31947,0,0,1,.86658.09616v4.3822a6.32841,6.32841,0,0,0-1.29988-.14483,3.63427,3.63427,0,0,0-2.67217.98708v6.74217h-4.76742Z"/>
        <path d="M302.4858,201.56493a11.72186,11.72186,0,0,1-4.62318.91526c-4.1893,0-7.05438-2.31129-7.05438-6.06789a6.21759,6.21759,0,0,1,6.42877-6.30768,5.65841,5.65841,0,0,1,5.92307,6.06729,9.4133,9.4133,0,0,1-.0736,1.20373h-7.43841a2.74437,2.74437,0,0,0,2.86449,1.68569,8.66493,8.66493,0,0,0,3.97324-1.10816Zm-6.91014-6.64482H298.874a1.623,1.623,0,0,0-1.66135-1.44471A1.64776,1.64776,0,0,0,295.57566,194.92011Z"/>
        <path d="M314.35448,207.51233l3.17789-6.59674-4.71875-10.54625h4.91106l2.09405,5.70642h.04867l2.28756-5.70642h4.5015l-7.53575,17.143Z"/>
        <path d="M335.17869,190.10462c3.97206,0,6.83773,2.69651,6.83773,6.18778,0,3.49069-2.86567,6.18779-6.83773,6.18779-3.97324,0-6.83773-2.6971-6.83773-6.18779C328.341,192.80113,331.20545,190.10462,335.17869,190.10462Zm0,8.40233a2.217,2.217,0,1,0-2.119-2.21455A2.11442,2.11442,0,0,0,335.17869,198.507Z"/>
        <path d="M345.48277,197.73652v-7.36718h4.76742v6.74157a1.43283,1.43283,0,0,0,.33714,1.13132,1.21139,1.21139,0,0,0,.89033.33713,2.4206,2.4206,0,0,0,1.58953-.67427v-7.53575h4.76623v11.84613h-4.67007v-.96274l-.04868-.02493a5.333,5.333,0,0,1-3.37019,1.25239,4.56421,4.56421,0,0,1-3.03424-1.08382C345.86858,200.62593,345.48277,199.51836,345.48277,197.73652Z"/>
        <path d="M362.84063,192.31975c2.1914,0,4.33413-.36147,4.33413-2.09464,0-.98708-.67428-1.78185-2.04657-1.78185a5.21952,5.21952,0,0,0-2.88942,1.05949l-.48078-3.99639a8.79469,8.79469,0,0,1,4.04447-.98708c3.32271,0,6.25961,2.11839,6.25961,5.27253a5.31123,5.31123,0,0,1-4.43028,5.104l-.07241,1.637h-4.213Zm2.98557,5.20012a2.48027,2.48027,0,1,1-2.5036,2.48046A2.48176,2.48176,0,0,1,365.8262,197.51987Z"/>
      </g>
      <circle class="cls-6" cx="99.33294" cy="209.92544" r="64.33294"/>
      <g>
        <path class="cls-7" d="M114.15208,227.47079h-3.07043a4.40215,4.40215,0,0,0-7.16436-5.1174,4.64671,4.64671,0,0,0,0,5.1174H93.09766a4.40215,4.40215,0,1,0-7.16435-5.1174,4.64671,4.64671,0,0,0,0,5.1174H82.86288a1.38136,1.38136,0,0,0-1.46211,1.46211,8.113,8.113,0,0,0,8.04161,8.04162,8.00427,8.00427,0,0,0,7.89541-6.57951h2.047a7.9812,7.9812,0,0,0,9.35752,6.4333,8.12205,8.12205,0,0,0,6.57951-7.89541A1.108,1.108,0,0,0,114.15208,227.47079Zm-6.5795-3.94771a1.46212,1.46212,0,1,1-1.46212,1.46211,1.46517,1.46517,0,0,1,1.46212-1.46211Zm-17.83777,0a1.46212,1.46212,0,1,1-1.46211,1.46211,1.38136,1.38136,0,0,1,1.46211-1.46211Zm0,10.52721a5.31278,5.31278,0,0,1-4.97118-3.65528h9.79615A5.00121,5.00121,0,0,1,89.73481,234.05029Zm17.83777,0a5.3128,5.3128,0,0,1-4.97119-3.65528h9.79616A4.87634,4.87634,0,0,1,107.57258,234.05029Z"/>
        <path class="cls-7" d="M119.26947,183.02257A20.82207,20.82207,0,0,0,99.38475,163.8689a20.54208,20.54208,0,0,0-21.20063,19.15367,37.25331,37.25331,0,0,0-16.9605,31.28921,24.31265,24.31265,0,0,0,13.59764,21.78547c5.26361,12.86659,14.18249,21.34684,24.27107,21.34684s19.29988-8.62647,24.41727-21.93169a24.243,24.243,0,0,0,12.57417-21.20062A37.47423,37.47423,0,0,0,119.26947,183.02257ZM86.51816,171.6181a17.38541,17.38541,0,0,1,12.72038-4.825,17.9311,17.9311,0,0,1,16.81429,14.3287,36.466,36.466,0,0,0-17.39914-4.24013,38.237,38.237,0,0,0-17.39913,4.24013A17.13087,17.13087,0,0,1,86.51816,171.6181Zm12.57417,82.90176c-13.30523,0-24.41728-17.10671-25.73318-39.477a43.75225,43.75225,0,0,0,12.28174,1.75454c9.21131,0,17.83777-2.92423,23.83243-7.89541a21.33857,21.33857,0,0,0,14.3287,14.3287C120.58538,241.79949,110.4968,254.51986,99.09233,254.51986Zm26.02559-23.54a54.81591,54.81591,0,0,0,1.90075-8.48025,1.44866,1.44866,0,0,0-1.16969-1.60832A18.08313,18.08313,0,0,1,111.8127,206.124a1.51652,1.51652,0,0,0-1.75453-1.16969.80405.80405,0,0,0-.73106.43864c-5.40982,5.40981-14.3287,8.77267-23.68622,8.77267a37.52145,37.52145,0,0,1-13.30522-2.33938,1.521,1.521,0,0,0-1.90075.87726c0,.14621-.14621.29243-.14621.58485a68.63992,68.63992,0,0,0,3.07044,18.715A21.42661,21.42661,0,0,1,64.14784,214.458a34.50585,34.50585,0,0,1,69.0117,0h0A21.74487,21.74487,0,0,1,125.11792,230.97986Z"/>
      </g>
      <g>
        <path class="cls-7" d="M148.98234,89.9301a25.771,25.771,0,0,1,11.35822,2.59739v10.1361a21.95147,21.95147,0,0,0-10.95105-3.41234c-6.57063,0-10.59492,4.32938-10.59492,9.88088,0,5.45,3.9222,9.93251,10.39074,9.93251a9.70907,9.70907,0,0,0,2.24126-.25463v-3.9222h-5.04283v-7.69126h15.17952v18.082a29.85344,29.85344,0,0,1-12.37795,2.64843c-12.5299,0-20.88238-8.04739-20.88238-18.79485C128.303,98.18108,137.01275,89.9301,148.98234,89.9301Z"/>
        <path class="cls-7" d="M170.41909,102.30686h9.88147v2.69948l.10209.05105a8.77365,8.77365,0,0,1,6.67272-3.20875,9.1633,9.1633,0,0,1,1.8329.20359v9.27011a13.37353,13.37353,0,0,0-2.75053-.30568,7.68831,7.68831,0,0,0-5.653,2.08812v14.26189H170.41909Z"/>
        <path class="cls-7" d="M196.49387,126.34813a6.89279,6.89279,0,0,1-3.20875-6.01032,7.30059,7.30059,0,0,1,2.95471-6.01031,11.97261,11.97261,0,0,1,7.02885-1.88453,18.30819,18.30819,0,0,1,3.82011.40717V112.494a2.38122,2.38122,0,0,0-.71345-1.83348,4.97375,4.97375,0,0,0-3.36188-.917,19.36,19.36,0,0,0-7.2829,1.68094v-7.8438a23.45548,23.45548,0,0,1,9.27011-1.83408c3.61593,0,6.92676.81495,9.06593,2.44484,2.24125,1.68095,3.10665,4.0237,3.10665,7.182v7.23244c0,1.01853.35614,1.62989,1.27377,1.62989a2.67486,2.67486,0,0,0,1.17167-.30568v6.92736a10.11119,10.11119,0,0,1-4.73774.96749,9.51036,9.51036,0,0,1-5.85718-1.68094h-.10209a12.3428,12.3428,0,0,1-6.51958,1.783A10.56027,10.56027,0,0,1,196.49387,126.34813Zm10.59492-5.45v-3.10725a8.11343,8.11343,0,0,0-1.47795-.15254c-1.32362,0-2.54634.50926-2.54634,1.83348,0,1.22272,1.06958,1.78244,2.24126,1.78244A5.05542,5.05542,0,0,0,207.08879,120.89813Z"/>
        <path class="cls-7" d="M226.59056,102.30686H236.472v1.93558l.10209.05105a12.28818,12.28818,0,0,1,7.2829-2.54694,9.29747,9.29747,0,0,1,6.41868,2.39439c1.6299,1.57885,2.44425,3.81952,2.44425,7.48708v15.73865H242.63549V113.15582a3.35732,3.35732,0,0,0-.71345-2.39379,2.61058,2.61058,0,0,0-1.935-.71286,5.03255,5.03255,0,0,0-3.31083,1.32422v15.99328H226.59056Z"/>
        <path class="cls-7" d="M273.34235,101.74655a11.17983,11.17983,0,0,1,4.07534.71345l.10209-.051V88.45275h10.08446v38.91392h-9.88147V126.0935l-.10209-.05105a10.02928,10.02928,0,0,1-6.00913,1.88453c-6.01031,0-11.46032-4.7876-11.46032-12.5299C260.15123,107.40074,266.00841,101.74655,273.34235,101.74655Zm1.37586,18.33663a6.48871,6.48871,0,0,0,2.80157-.6624v-9.168a6.22042,6.22042,0,0,0-2.49649-.50927c-3.31083,0-4.6855,2.3938-4.6855,5.19537C270.33779,117.84192,271.81455,120.08318,274.71821,120.08318Z"/>
        <path class="cls-7" d="M328.14272,113.15582a3.35732,3.35732,0,0,0-.71345-2.39379,2.61058,2.61058,0,0,0-1.935-.71286,4.97524,4.97524,0,0,0-3.05679,1.17108v16.14642H312.353V113.15582a3.35727,3.35727,0,0,0-.71345-2.39379,2.61056,2.61056,0,0,0-1.935-.71286,4.64551,4.64551,0,0,0-3.0568,1.22212v16.09538H296.56333V102.30686h9.88147v1.83408l.10209.05045a11.99844,11.99844,0,0,1,7.02885-2.44484c2.54634,0,5.55091.96809,7.13095,3.20875a13.68281,13.68281,0,0,1,8.65875-3.20875,9.33582,9.33582,0,0,1,6.46854,2.39439c1.57885,1.57885,2.3932,3.81952,2.3932,7.48708v15.73865H328.14272Z"/>
        <path class="cls-7" d="M348.7117,126.34813a6.89279,6.89279,0,0,1-3.20875-6.01032,7.30291,7.30291,0,0,1,2.95352-6.01031,11.97732,11.97732,0,0,1,7.02885-1.88453,18.29074,18.29074,0,0,1,3.82011.40717V112.494a2.38033,2.38033,0,0,0-.71226-1.83348,4.97378,4.97378,0,0,0-3.36189-.917,19.37163,19.37163,0,0,0-7.28408,1.68094v-7.8438a23.46015,23.46015,0,0,1,9.27011-1.83408c3.61711,0,6.928.81495,9.06712,2.44484,2.24006,1.68095,3.10665,4.0237,3.10665,7.182v7.23244c0,1.01853.35613,1.62989,1.27377,1.62989a2.66617,2.66617,0,0,0,1.17048-.30568v6.92736a10.10589,10.10589,0,0,1-4.73655.96749,9.51034,9.51034,0,0,1-5.85718-1.68094h-.10209a12.349,12.349,0,0,1-6.51959,1.783A10.55756,10.55756,0,0,1,348.7117,126.34813Zm10.59373-5.45v-3.10725a8.11167,8.11167,0,0,0-1.47676-.15254c-1.32362,0-2.54634.50926-2.54634,1.83348,0,1.22272,1.06958,1.78244,2.24126,1.78244A5.04885,5.04885,0,0,0,359.30543,120.89813Z"/>
        <path class="cls-7" d="M379.01257,90.49041h11.40928c5.85718,0,9.4731.66181,12.02063,2.08812a7.98081,7.98081,0,0,1,4.43028,7.182c0,3.46338-1.986,5.70464-5.602,7.0799v.1015c5.14373,1.732,7.13094,4.99178,7.13094,9.06652,0,4.27833-2.19021,7.58917-6.41868,9.4737a27.02665,27.02665,0,0,1-11.00091,1.88453H379.01257Zm12.7329,14.72012c3.1577,0,4.63565-.96809,4.63565-3.20935a2.61286,2.61286,0,0,0-1.529-2.59738c-.76331-.40777-1.935-.56032-4.1252-.56032h-1.22271v6.36705Zm-.71226,13.80307c3.00456,0,4.53237-.25464,5.399-.71345a2.889,2.889,0,0,0,1.47676-2.801c0-2.49589-1.732-3.56547-5.09387-3.56547h-3.31083v7.0799Z"/>
        <path class="cls-7" d="M428.5137,101.74655c8.40471,0,14.46607,5.70464,14.46607,13.09022S436.91841,127.927,428.5137,127.927c-8.40352,0-14.46489-5.70464-14.46489-13.09021S420.11018,101.74655,428.5137,101.74655Zm0,17.77632a4.69072,4.69072,0,1,0-4.48251-4.6861A4.47539,4.47539,0,0,0,428.5137,119.52287Z"/>
        <path class="cls-7" d="M452.143,117.43475v-7.182h-3.718v-7.9459h3.718V96.04191l10.08446-1.73139v7.99634h6.01032v7.9459H462.2275v6.46854c0,1.98662.61136,3.10725,2.49649,3.10725a10.701,10.701,0,0,0,3.51383-.815v7.69066a16.26059,16.26059,0,0,1-6.26436,1.22272,10.39629,10.39629,0,0,1-7.38617-2.59739C453.16158,123.90329,452.143,121.76412,452.143,117.43475Z"/>
      </g>
    </g>
  </g>
</svg>
