<svg width="600" height="400" viewBox="0 0 600 400" fill="none" xmlns="http://www.w3.org/2000/svg">
<rect width="600" height="400" fill="white"/>
<rect width="600" height="400" fill="white"/>
<path d="M59 262.903L541.956 263.562" stroke="#6F6F6E" stroke-width="4" stroke-miterlimit="10"/>
<path d="M428.741 244.961L421.208 235.988L406.401 235.968L397.342 244.768L397.525 244.885H397.458L397.433 263.217L428.692 263.26L428.716 244.928L428.741 244.961Z" fill="#ECECEC"/>
<path d="M338.697 232.186C338.694 232.217 338.694 232.245 338.696 232.276C338.674 233.392 339.295 234.474 340.415 235.267C340.505 235.401 340.601 235.532 340.702 235.659C340.285 236.516 340.067 237.419 340.059 238.329C340.01 241.469 342.259 244.051 345.082 244.095C347.902 244.138 350.229 241.625 350.276 238.485C350.291 237.805 350.188 237.124 349.973 236.46C351.797 235.104 349.288 233.053 350.68 231.436C352.545 229.269 352.968 223.874 350.543 221.433C346.745 217.609 344.185 221.9 343.208 224.071C343.124 224.26 343.055 224.454 343.012 224.65C340.258 223.439 338.073 232.083 338.697 232.186Z" fill="#E2E2E2"/>
<path d="M440.794 243.634L443.004 243.637L442.994 251.291L440.783 251.288L440.794 243.634Z" fill="#ECECEC"/>
<path d="M444.502 250.17L439.007 243.548L428.293 243.533L421.739 249.901L421.87 249.985H421.823L421.805 263.249L444.423 263.282L444.44 250.016L444.502 250.17Z" fill="#ECECEC"/>
<path d="M440.369 241.128C440.368 241.137 440.368 241.146 440.369 241.157C440.489 241.529 440.647 241.888 440.834 242.233C440.742 242.51 440.697 242.799 440.697 243.093C440.696 244.099 441.215 244.917 441.858 244.917C442.498 244.92 443.021 244.103 443.021 243.096C443.022 242.877 442.995 242.659 442.945 242.447C443.355 242.004 443.416 241.341 443.091 240.833C443.641 241.314 444.479 241.26 444.96 240.709C445.445 240.157 445.391 239.321 444.84 238.836C444.829 238.828 444.822 238.821 444.811 238.814C445.499 238.561 445.855 237.799 445.6 237.109C445.348 236.422 444.586 236.07 443.899 236.322C443.376 236.513 443.03 237.01 443.027 237.566C443.028 237.585 443.03 237.604 443.027 237.624C442.329 237.408 441.584 237.802 441.37 238.503C441.351 238.565 441.339 238.627 441.327 238.691C440.7 238.314 439.883 238.52 439.507 239.15C439.131 239.779 439.337 240.593 439.967 240.969C440.092 241.043 440.228 241.097 440.369 241.128Z" fill="#E2E2E2"/>
<path d="M439.094 243.463L432.366 251.329L432.35 263.264L444.423 263.282L444.44 249.847L439.094 243.463Z" fill="#ECECEC"/>
<path d="M408.912 239.544L399.178 227.914L380.002 227.887L368.268 239.286L368.506 239.437L368.421 239.438L368.389 263.177L408.866 263.233L408.899 239.492L408.912 239.544Z" fill="#ECECEC"/>
<path d="M400.852 226.828L403.062 226.831L403.051 234.484L400.841 234.482L400.852 226.828Z" fill="#ECECEC"/>
<path d="M423.204 235.958L425.413 235.961L425.403 243.614L423.19 243.611L423.204 235.958Z" fill="#ECECEC"/>
<path d="M421.325 235.871L412.027 246.741L412.005 263.238L428.692 263.26L428.717 244.694L421.325 235.871Z" fill="#ECECEC"/>
<path d="M399.33 227.763L387.286 241.842L387.258 263.203L408.866 263.233L408.899 239.189L399.33 227.763Z" fill="#ECECEC"/>
<path d="M377.53 262.801C377.53 262.801 377.585 261.693 378.669 261.823L377.53 262.801Z" fill="#E6E6E6"/>
<path d="M377.136 262.117H377.29V263.19L377.136 263.189V262.117Z" fill="#E6E6E6"/>
<path d="M382.377 262.808C382.377 262.808 382.433 261.699 383.514 261.831L382.377 262.808Z" fill="#E6E6E6"/>
<path d="M381.983 262.124H382.137L382.136 263.196H381.982L381.983 262.124Z" fill="#E6E6E6"/>
<path d="M410.181 262.846C410.181 262.846 410.234 261.737 411.321 261.868L410.181 262.846Z" fill="#E6E6E6"/>
<path d="M409.787 262.162H409.941L409.94 263.234H409.786L409.787 262.162Z" fill="#E6E6E6"/>
<path d="M430.672 262.874C430.672 262.874 430.729 261.766 431.811 261.897L430.672 262.874Z" fill="#E6E6E6"/>
<path d="M430.279 262.189L430.433 262.19V263.262L430.279 263.263V262.189Z" fill="#E6E6E6"/>
<path d="M370.899 262.794C370.899 262.794 370.953 261.684 372.036 261.814L370.899 262.794Z" fill="#E6E6E6"/>
<path d="M370.504 262.109H370.657L370.656 263.179L370.502 263.18L370.504 262.109Z" fill="#E6E6E6"/>
<path d="M422.742 232.02C422.742 232.03 422.742 232.042 422.74 232.053C422.739 232.462 422.905 232.856 423.201 233.142C423.226 233.19 423.248 233.238 423.277 233.284C423.172 233.602 423.119 233.935 423.117 234.269C423.116 235.424 423.713 236.359 424.445 236.36C425.18 236.362 425.778 235.429 425.779 234.273C425.78 234.023 425.751 233.775 425.693 233.529C426.163 233.023 426.231 232.263 425.858 231.68C426.49 232.233 427.453 232.17 428.004 231.538C428.559 230.908 428.492 229.946 427.864 229.393C427.853 229.384 427.842 229.376 427.833 229.368C428.617 229.079 429.026 228.205 428.735 227.417C428.444 226.627 427.571 226.223 426.781 226.514C426.185 226.733 425.789 227.302 425.786 227.938C425.786 227.96 425.791 227.981 425.787 228.004C424.985 227.758 424.135 228.209 423.888 229.013C423.867 229.082 423.853 229.154 423.839 229.227C423.119 228.796 422.185 229.031 421.755 229.753C421.325 230.474 421.558 231.407 422.281 231.837C422.425 231.923 422.58 231.982 422.742 232.02Z" fill="#E2E2E2"/>
<path d="M400.01 222.631C400.009 222.644 400.009 222.658 400.007 222.669C400.009 223.152 400.202 223.614 400.547 223.949C400.574 224.006 400.603 224.062 400.637 224.116C400.513 224.49 400.448 224.881 400.451 225.273C400.448 226.627 401.149 227.728 402.009 227.73C402.871 227.731 403.573 226.633 403.575 225.277C403.575 224.985 403.542 224.69 403.472 224.406C404.025 223.811 404.105 222.918 403.667 222.234C404.409 222.884 405.538 222.809 406.185 222.068C406.836 221.328 406.762 220.198 406.02 219.551C406.009 219.54 405.997 219.53 405.984 219.52C406.91 219.18 407.385 218.156 407.042 217.23C406.704 216.304 405.678 215.829 404.753 216.169C404.051 216.427 403.586 217.095 403.586 217.842C403.584 217.869 403.586 217.895 403.584 217.92C402.643 217.63 401.643 218.162 401.354 219.104C401.33 219.185 401.31 219.27 401.298 219.354C400.451 218.849 399.354 219.125 398.851 219.972C398.345 220.819 398.622 221.913 399.468 222.419C399.636 222.519 399.819 222.59 400.01 222.631Z" fill="#E2E2E2"/>
<g opacity="0.399994">
<g opacity="0.399994">
<g opacity="0.399994">
<g opacity="0.399994">
<g opacity="0.399994">
<path opacity="0.399994" d="M433.295 254.528L435.76 254.531L435.757 256.711L433.292 256.709L433.295 254.528Z" fill="#C6C6C5"/>
</g>
</g>
</g>
</g>
<g opacity="0.399994">
<g opacity="0.399994">
<g opacity="0.399994">
<g opacity="0.399994">
<path opacity="0.399994" d="M433.3 250.754L435.765 250.759L435.761 252.904L433.298 252.9L433.3 250.754Z" fill="#C6C6C5"/>
</g>
</g>
</g>
</g>
<g opacity="0.399994">
<g opacity="0.399994">
<g opacity="0.399994">
<g opacity="0.399994">
<path opacity="0.399994" d="M386.153 242.5L390.567 242.505L390.557 247.018L386.147 247.01L386.153 242.5Z" fill="#C6C6C5"/>
</g>
</g>
</g>
</g>
<g opacity="0.399994">
<g opacity="0.399994">
<g opacity="0.399994">
<g opacity="0.399994">
<path opacity="0.399994" d="M386.145 248.64L390.559 248.645L390.551 253.158L386.138 253.153L386.145 248.64Z" fill="#C6C6C5"/>
</g>
</g>
</g>
</g>
<g opacity="0.399994">
<g opacity="0.399994">
<g opacity="0.399994">
<g opacity="0.399994">
<path opacity="0.399994" d="M392.256 242.508L396.666 242.514L396.661 247.025L392.248 247.02L392.256 242.508Z" fill="#C6C6C5"/>
</g>
</g>
</g>
</g>
<g opacity="0.399994">
<g opacity="0.399994">
<g opacity="0.399994">
<g opacity="0.399994">
<path opacity="0.399994" d="M392.247 248.646L396.66 248.653L396.655 253.166L392.241 253.161L392.247 248.646Z" fill="#C6C6C5"/>
</g>
</g>
</g>
</g>
<g opacity="0.399994">
<g opacity="0.399994">
<g opacity="0.399994">
<g opacity="0.399994">
<path opacity="0.399994" d="M398.357 242.516L402.772 242.523L402.768 247.033L398.354 247.026L398.357 242.516Z" fill="#C6C6C5"/>
</g>
</g>
</g>
</g>
<g opacity="0.399994">
<g opacity="0.399994">
<g opacity="0.399994">
<g opacity="0.399994">
<path opacity="0.399994" d="M398.351 248.654L402.765 248.662L402.759 253.175L398.344 253.168L398.351 248.654Z" fill="#C6C6C5"/>
</g>
</g>
</g>
</g>
<g opacity="0.399994">
<g opacity="0.399994">
<g opacity="0.399994">
<g opacity="0.399994">
<path opacity="0.399994" d="M412.453 251.69L415.862 251.696L415.857 254.994L412.449 254.991L412.453 251.69Z" fill="#C6C6C5"/>
</g>
</g>
</g>
</g>
<g opacity="0.399994">
<g opacity="0.399994">
<g opacity="0.399994">
<g opacity="0.399994">
<path opacity="0.399994" d="M412.46 246.764L415.87 246.769L415.865 250.067L412.455 250.062L412.46 246.764Z" fill="#C6C6C5"/>
</g>
</g>
</g>
</g>
<g opacity="0.399994">
<g opacity="0.399994">
<g opacity="0.399994">
<g opacity="0.399994">
<path opacity="0.399994" d="M417.44 251.698L420.844 251.702L420.842 255L417.436 254.996L417.44 251.698Z" fill="#C6C6C5"/>
</g>
</g>
</g>
</g>
<g opacity="0.399994">
<g opacity="0.399994">
<g opacity="0.399994">
<g opacity="0.399994">
<path opacity="0.399994" d="M417.446 246.771L420.852 246.775L420.848 250.074L417.441 250.069L417.446 246.771Z" fill="#C6C6C5"/>
</g>
</g>
</g>
</g>
</g>
<path d="M348.07 229.732L345.572 233.181L345.34 226.335L345.03 236.441L342.733 233.258L345.005 237.14L344.216 262.69L346.571 262.692L345.597 233.933L348.07 229.732Z" fill="#D9D9D9"/>
<path d="M357.421 234.501C357.42 234.531 357.417 234.561 357.417 234.59C357.399 235.708 358.021 236.789 359.14 237.584C359.228 237.716 359.323 237.846 359.425 237.973C359.01 238.831 358.791 239.734 358.784 240.644C358.735 243.785 360.984 246.365 363.806 246.41C366.625 246.452 368.954 243.94 369.002 240.799C369.015 240.12 368.915 239.442 368.699 238.776C370.524 237.422 368.011 235.369 369.404 233.751C371.266 231.585 371.69 226.188 369.265 223.747C365.468 219.923 362.908 224.214 361.932 226.386C361.848 226.575 361.779 226.77 361.737 226.966C358.982 225.754 356.797 234.397 357.421 234.501Z" fill="#E2E2E2"/>
<path d="M369.691 242.363C369.689 242.385 369.688 242.408 369.688 242.429C369.672 243.241 370.124 244.026 370.938 244.605C371.004 244.7 371.075 244.796 371.15 244.89C370.846 245.513 370.684 246.168 370.68 246.83C370.643 249.115 372.282 250.992 374.332 251.023C376.387 251.056 378.077 249.228 378.112 246.943C378.122 246.45 378.048 245.957 377.89 245.471C379.219 244.487 377.393 242.995 378.404 241.817C379.758 240.242 380.066 236.319 378.305 234.543C375.541 231.762 373.681 234.882 372.97 236.462C372.909 236.599 372.861 236.741 372.827 236.882C370.825 236.003 369.237 242.289 369.691 242.363Z" fill="#E2E2E2"/>
<path d="M376.475 238.06L374.567 240.69L374.39 235.468L374.154 243.179L372.402 240.748L374.138 243.713L373.534 263.211L375.332 263.215L374.588 241.264L376.475 238.06Z" fill="#D9D9D9"/>
<path d="M367.939 230.242L365.441 233.691L365.21 226.846L364.899 236.95L362.606 233.769L364.876 237.648L364.089 263.199L366.442 263.202L365.468 234.442L367.939 230.242Z" fill="#D9D9D9"/>
<path d="M79.2249 194.765L79.1328 262.443L108.799 262.484L149.361 262.54L170.915 262.569L200.584 262.608L230.25 262.649L259.918 262.69L300.478 262.746L300.556 206.924L259.992 206.869L259.972 223.52L250.7 223.508L250.722 206.821L239.598 206.805L239.575 223.493L230.304 223.479L230.342 194.973L229.879 194.971L229.898 180.137L221.091 180.126L221.072 194.959L200.675 194.931L200.645 217.181L189.287 217.166L189.297 210.212L182.344 210.203L182.334 217.155L170.978 217.141L171.068 151.317L156.233 151.297L156.248 140.866L153.698 140.863L153.685 151.293L149.512 151.287L149.483 171.916L142.066 171.906L142.091 154.753L135.832 154.745L135.857 137.131L122.878 137.113L122.853 154.728L116.595 154.719L116.571 171.871L108.924 171.861L108.892 194.806L98.4613 194.792L98.4817 179.957L89.6757 179.945L89.6548 194.78L79.2249 194.765Z" fill="#ECECEC"/>
<g opacity="0.399994">
<g opacity="0.399994">
<path opacity="0.399994" d="M296.139 215.689L286.406 215.676L286.412 210.113L296.148 210.126L296.139 215.689Z" fill="#D9D9D9"/>
</g>
</g>
<g opacity="0.399994">
<g opacity="0.399994">
<path opacity="0.399994" d="M264.624 210.082L274.357 210.096L274.352 215.66L264.617 215.647L264.624 210.082Z" fill="#D9D9D9"/>
</g>
</g>
<g opacity="0.399994">
<g opacity="0.399994">
<path opacity="0.399994" d="M296.124 226.584L286.391 226.571L286.398 221.008L296.13 221.019L296.124 226.584Z" fill="#D9D9D9"/>
</g>
</g>
<g opacity="0.399994">
<g opacity="0.399994">
<path opacity="0.399994" d="M264.611 220.977L274.343 220.99L274.336 226.553L264.601 226.541L264.611 220.977Z" fill="#D9D9D9"/>
</g>
</g>
<g opacity="0.399994">
<g opacity="0.399994">
<path opacity="0.399994" d="M296.111 237.477L286.377 237.464L286.383 231.9L296.117 231.914L296.111 237.477Z" fill="#D9D9D9"/>
</g>
</g>
<g opacity="0.399994">
<g opacity="0.399994">
<path opacity="0.399994" d="M264.595 231.871L274.328 231.884L274.321 237.447L264.587 237.433L264.595 231.871Z" fill="#D9D9D9"/>
</g>
</g>
<g opacity="0.399994">
<g opacity="0.399994">
<path opacity="0.399994" d="M296.094 248.37L286.361 248.357L286.368 242.795L296.102 242.808L296.094 248.37Z" fill="#D9D9D9"/>
</g>
</g>
<g opacity="0.399994">
<g opacity="0.399994">
<path opacity="0.399994" d="M264.581 242.765L274.313 242.778L274.308 248.339L264.571 248.326L264.581 242.765Z" fill="#D9D9D9"/>
</g>
</g>
<g opacity="0.399994">
<g opacity="0.399994">
<path opacity="0.399994" d="M256.482 231.86L233.769 231.827L233.773 229.047L256.488 229.079L256.482 231.86Z" fill="#D9D9D9"/>
</g>
</g>
<g opacity="0.399994">
<g opacity="0.399994">
<path opacity="0.399994" d="M256.478 236.032L233.762 236.001L233.767 233.219L256.481 233.251L256.478 236.032Z" fill="#D9D9D9"/>
</g>
</g>
<g opacity="0.399994">
<g opacity="0.399994">
<path opacity="0.399994" d="M256.472 240.203L233.757 240.173L233.761 237.392L256.475 237.423L256.472 240.203Z" fill="#D9D9D9"/>
</g>
</g>
<g opacity="0.399994">
<g opacity="0.399994">
<path opacity="0.399994" d="M197.145 233.17L174.433 233.138L174.437 230.357L197.151 230.388L197.145 233.17Z" fill="#D9D9D9"/>
</g>
</g>
<g opacity="0.399994">
<g opacity="0.399994">
<path opacity="0.399994" d="M197.141 237.342L174.425 237.31L174.431 234.529L197.145 234.561L197.141 237.342Z" fill="#D9D9D9"/>
</g>
</g>
<g opacity="0.399994">
<g opacity="0.399994">
<path opacity="0.399994" d="M197.135 241.514L174.421 241.482L174.426 238.7L197.138 238.732L197.135 241.514Z" fill="#D9D9D9"/>
</g>
</g>
<g opacity="0.399994">
<g opacity="0.399994">
<path opacity="0.399994" d="M256.465 244.374L233.751 244.343L233.755 241.564L256.47 241.595L256.465 244.374Z" fill="#D9D9D9"/>
</g>
</g>
<g opacity="0.399994">
<g opacity="0.399994">
<path opacity="0.399994" d="M256.46 248.547L233.746 248.517L233.75 245.736L256.465 245.766L256.46 248.547Z" fill="#D9D9D9"/>
</g>
</g>
<g opacity="0.399994">
<g opacity="0.399994">
<path opacity="0.399994" d="M256.455 252.72L233.74 252.689L233.744 249.907L256.458 249.939L256.455 252.72Z" fill="#D9D9D9"/>
</g>
</g>
<g opacity="0.399994">
<g opacity="0.399994">
<path opacity="0.399994" d="M225.457 208.406L219.198 208.399L219.211 200.287L225.469 200.296L225.457 208.406Z" fill="#D9D9D9"/>
</g>
</g>
<g opacity="0.399994">
<g opacity="0.399994">
<path opacity="0.399994" d="M205.534 200.268L211.794 200.276L211.782 208.389L205.524 208.378L205.534 200.268Z" fill="#D9D9D9"/>
</g>
</g>
<g opacity="0.399994">
<g opacity="0.399994">
<path opacity="0.399994" d="M225.439 221.389L219.183 221.379L219.191 213.265L225.45 213.275L225.439 221.389Z" fill="#D9D9D9"/>
</g>
</g>
<g opacity="0.399994">
<g opacity="0.399994">
<path opacity="0.399994" d="M205.518 213.247L211.776 213.257L211.766 221.369L205.506 221.36L205.518 213.247Z" fill="#D9D9D9"/>
</g>
</g>
<g opacity="0.399994">
<g opacity="0.399994">
<path opacity="0.399994" d="M225.421 234.366L219.165 234.357L219.175 226.246L225.434 226.256L225.421 234.366Z" fill="#D9D9D9"/>
</g>
</g>
<g opacity="0.399994">
<g opacity="0.399994">
<path opacity="0.399994" d="M205.498 226.228L211.757 226.236L211.747 234.349L205.489 234.339L205.498 226.228Z" fill="#D9D9D9"/>
</g>
</g>
<g opacity="0.399994">
<g opacity="0.399994">
<path opacity="0.399994" d="M225.403 247.346L219.145 247.337L219.158 239.225L225.415 239.233L225.403 247.346Z" fill="#D9D9D9"/>
</g>
</g>
<g opacity="0.399994">
<g opacity="0.399994">
<path opacity="0.399994" d="M205.483 239.207L211.739 239.216L211.729 247.328L205.471 247.319L205.483 239.207Z" fill="#D9D9D9"/>
</g>
</g>
<g opacity="0.399994">
<g opacity="0.399994">
<path opacity="0.399994" d="M171.047 167.309L162.701 167.297L162.716 156.637L171.061 156.648L171.047 167.309Z" fill="#D9D9D9"/>
</g>
</g>
<g opacity="0.399994">
<g opacity="0.399994">
<path opacity="0.399994" d="M171.025 182.607L162.681 182.596L162.696 171.933L171.039 171.944L171.025 182.607Z" fill="#D9D9D9"/>
</g>
</g>
<g opacity="0.399994">
<g opacity="0.399994">
<path opacity="0.399994" d="M171.004 197.903L162.66 197.893L162.675 187.231L171.018 187.242L171.004 197.903Z" fill="#D9D9D9"/>
</g>
</g>
<g opacity="0.399994">
<g opacity="0.399994">
<path opacity="0.399994" d="M170.984 213.201L162.638 213.189L162.653 202.529L170.997 202.539L170.984 213.201Z" fill="#D9D9D9"/>
</g>
</g>
<g opacity="0.399994">
<g opacity="0.399994">
<path opacity="0.399994" d="M170.963 228.499L162.617 228.486L162.632 217.825L170.976 217.837L170.963 228.499Z" fill="#D9D9D9"/>
</g>
</g>
<g opacity="0.399994">
<g opacity="0.399994">
<path opacity="0.399994" d="M170.942 243.795L162.597 243.782L162.61 233.123L170.956 233.134L170.942 243.795Z" fill="#D9D9D9"/>
</g>
</g>
<g opacity="0.399994">
<g opacity="0.399994">
<path opacity="0.399994" d="M144.711 187.438L113.653 187.396L113.665 178.356L144.724 178.399L144.711 187.438Z" fill="#D9D9D9"/>
</g>
</g>
<g opacity="0.399994">
<g opacity="0.399994">
<path opacity="0.399994" d="M144.569 206.906L113.511 206.866L113.525 197.825L144.582 197.868L144.569 206.906Z" fill="#D9D9D9"/>
</g>
</g>
<g opacity="0.399994">
<g opacity="0.399994">
<path opacity="0.399994" d="M144.427 226.376L113.368 226.333L113.38 217.295L144.439 217.337L144.427 226.376Z" fill="#D9D9D9"/>
</g>
</g>
<g opacity="0.399994">
<g opacity="0.399994">
<path opacity="0.399994" d="M144.285 245.846L113.225 245.802L113.239 236.763L144.297 236.805L144.285 245.846Z" fill="#D9D9D9"/>
</g>
</g>
<g opacity="0.399994">
<g opacity="0.399994">
<path opacity="0.399994" d="M89.6299 213.554L79.1995 213.539L79.2168 200.097L89.6461 200.111L89.6299 213.554Z" fill="#D9D9D9"/>
</g>
</g>
<g opacity="0.399994">
<g opacity="0.399994">
<path opacity="0.399994" d="M89.6019 233.023L79.172 233.009L79.1905 219.564L89.6211 219.578L89.6019 233.023Z" fill="#D9D9D9"/>
</g>
</g>
<g opacity="0.399994">
<g opacity="0.399994">
<path opacity="0.399994" d="M89.5762 252.493L79.1457 252.478L79.1636 239.034L89.5929 239.049L89.5762 252.493Z" fill="#D9D9D9"/>
</g>
</g>
<path d="M369.129 95.1782C349.112 75.1043 316.499 75.0499 296.405 95.0574C296.256 95.2045 249.782 141.731 249.782 141.731L249.822 112.983C249.826 110.06 247.455 107.682 244.531 107.679C241.609 107.675 239.234 110.045 239.229 112.969L239.172 154.546C239.17 157.468 241.538 159.845 244.461 159.85L286.043 159.907C288.964 159.911 291.34 157.54 291.345 154.617C291.348 151.696 288.98 149.318 286.056 149.314L257.189 149.275L303.833 102.568L303.844 102.559C319.795 86.6492 345.708 86.6839 361.616 102.638C369.318 110.359 373.558 120.631 373.542 131.541C373.525 142.449 369.262 152.709 361.59 160.358L295.614 226.145C294.622 227.146 293.291 227.691 291.88 227.69C290.464 227.688 289.136 227.137 288.136 226.134L230.208 168.049C226.561 164.394 222.431 160.253 222.399 160.221C214.698 152.498 210.46 142.226 210.477 131.318C210.491 120.409 214.757 110.15 222.479 102.447C234.194 90.7519 254.342 87.1397 268.341 94.2176C270.946 95.5293 275.31 98.7742 275.31 98.7742C277.66 100.519 280.974 100.027 282.718 97.6767C284.461 95.3265 283.972 92.0128 281.621 90.268C281.621 90.268 276.54 86.4949 273.134 84.771C255.011 75.6092 230.021 79.9852 215.021 94.9569C205.289 104.661 199.922 117.566 199.903 131.303C199.885 145.029 205.206 157.941 214.891 167.659C214.995 167.766 218.587 171.378 222.728 175.519L280.656 233.604C283.646 236.606 287.632 238.268 291.874 238.273C296.114 238.278 300.107 236.627 303.107 233.634L369.018 167.902C378.75 158.198 384.117 145.291 384.135 131.555C384.161 117.839 378.832 104.908 369.129 95.1782Z" fill="#FF966E"/>
<path d="M123.274 182.42C130.383 177.923 137.614 173.57 145.283 170.048C149.118 168.298 153.073 166.773 157.168 165.694C161.257 164.615 165.504 164.009 169.764 164.136C174.021 164.252 178.259 165.129 182.241 166.656C186.229 168.174 189.96 170.297 193.432 172.744C196.906 175.196 200.138 177.965 203.192 180.901C204.721 182.368 206.204 183.88 207.654 185.422C208.383 186.201 209.084 186.957 209.812 187.776L211.866 190.18C217.314 196.615 222.601 203.16 228.11 209.491C233.615 215.819 239.329 221.961 245.555 227.503C251.774 233.032 258.538 237.973 265.977 241.498C269.689 243.259 273.565 244.645 277.542 245.562C281.517 246.483 285.59 246.914 289.659 246.857C291.693 246.828 293.725 246.672 295.745 246.41C297.826 246.138 299.896 245.852 301.97 245.547C306.114 244.939 310.247 244.264 314.373 243.529C322.633 242.082 330.823 240.315 339.171 238.786C343.351 238.042 347.587 237.369 351.95 237.108C356.299 236.846 360.829 237.064 365.212 238.207C367.386 238.76 369.562 239.564 371.537 240.471C373.551 241.379 375.48 242.377 377.37 243.447C381.145 245.587 384.717 247.979 388.19 250.448C395.129 255.402 401.706 260.653 408.457 265.547C415.197 270.447 422.103 275.022 429.398 278.743C436.679 282.474 444.35 285.321 452.272 286.933C460.188 288.56 468.325 288.941 476.39 288.211L476.964 295.366C468.255 295.995 459.408 295.42 450.864 293.498C442.314 291.595 434.12 288.367 426.502 284.283C418.866 280.208 411.787 275.316 405.011 270.198C398.227 265.084 391.738 259.708 385.063 254.759C381.724 252.291 378.333 249.933 374.821 247.857C373.068 246.822 371.272 245.852 369.466 244.997C367.632 244.116 365.854 243.431 363.959 242.906C360.201 241.854 356.224 241.569 352.179 241.739C348.133 241.906 344.028 242.474 339.912 243.133C331.676 244.487 323.377 246.12 315.03 247.429C310.856 248.093 306.671 248.701 302.478 249.24C300.383 249.509 298.279 249.762 296.183 249.997C294.026 250.239 291.852 250.367 289.678 250.36C285.33 250.347 280.983 249.808 276.776 248.756C272.566 247.709 268.498 246.17 264.64 244.258C256.91 240.427 250.039 235.2 243.792 229.451C231.28 217.89 221.138 204.301 210.52 191.302L208.516 188.871C207.859 188.106 207.144 187.305 206.448 186.536C205.041 184.988 203.603 183.47 202.121 181.997C199.16 179.05 196.029 176.273 192.666 173.812C189.306 171.355 185.699 169.222 181.842 167.675C177.991 166.123 173.888 165.197 169.73 165.011C165.572 164.815 161.389 165.334 157.33 166.331C153.265 167.326 149.31 168.772 145.462 170.448C137.765 173.822 130.459 178.047 123.274 182.42Z" fill="#FF966E"/>
<path d="M507.024 245.866C507.002 262.037 477.66 307.784 477.66 307.784C477.66 307.784 448.451 261.955 448.474 245.786C448.495 229.616 461.619 216.529 477.786 216.55C493.955 216.573 507.044 229.699 507.024 245.866Z" fill="#FF966E"/>
<path d="M507.024 245.866C507.002 262.037 477.66 307.784 477.66 307.784C477.66 307.784 448.451 261.955 448.474 245.786C448.495 229.616 461.619 216.529 477.786 216.55C493.955 216.573 507.044 229.699 507.024 245.866Z" stroke="white" stroke-width="4" stroke-miterlimit="9"/>
<path d="M477.763 234.935C482.654 234.942 486.609 238.909 486.603 243.797C486.594 248.686 482.629 252.645 477.737 252.637C472.852 252.632 468.894 248.661 468.899 243.774C468.907 238.885 472.876 234.929 477.763 234.935Z" fill="white"/>
<path d="M407.552 274.343C406.358 274.341 405.463 274.551 404.869 274.973C404.279 275.395 403.981 276.143 403.982 277.198L403.98 278.22C403.978 279.286 404.252 280.036 404.799 280.48C405.349 280.923 406.243 281.148 407.479 281.149C408.745 281.15 409.673 280.94 410.255 280.519C410.826 280.1 411.111 279.329 411.111 278.233L411.114 277.208C411.115 276.184 410.843 275.456 410.294 275.011C409.735 274.568 408.827 274.345 407.552 274.343Z" fill="#181715"/>
<path d="M253.13 286.708C251.518 285.452 249.25 284.826 246.316 284.821C244.534 284.818 242.856 285.186 241.282 285.933C239.721 286.67 238.368 287.608 237.237 288.735C236.193 289.778 235.399 290.81 234.849 291.832C234.218 289.933 233.261 288.36 231.912 287.134C230.215 285.581 227.8 284.808 224.656 284.802C223.169 284.801 221.787 285.051 220.51 285.556C219.244 286.06 218.081 286.724 217.034 287.524C216.002 288.337 215.135 289.22 214.458 290.201C214.363 290.339 214.277 290.463 214.193 290.601L214.195 288.607C214.197 287.68 213.892 286.898 213.269 286.285C212.659 285.673 211.9 285.354 211.016 285.354C210.076 285.351 209.316 285.657 208.723 286.278C208.132 286.891 207.835 287.669 207.836 288.599L207.799 315.608C207.796 316.547 208.09 317.318 208.679 317.931C209.271 318.544 210.041 318.861 210.968 318.863C211.856 318.863 212.616 318.558 213.227 317.937C213.851 317.326 214.158 316.545 214.16 315.616L214.182 298.736C214.185 297.249 214.535 295.889 215.243 294.666C215.942 293.432 216.934 292.463 218.199 291.737C219.479 291.021 220.945 290.655 222.603 290.655C224.341 290.658 225.703 291.019 226.673 291.748C227.654 292.478 228.349 293.45 228.748 294.684C229.145 295.919 229.345 297.28 229.343 298.757L229.32 315.637C229.318 316.576 229.614 317.347 230.203 317.96C230.793 318.573 231.564 318.89 232.492 318.89C233.419 318.891 234.19 318.587 234.784 317.965C235.373 317.355 235.671 316.575 235.671 315.647L235.694 298.829C235.696 297.341 236.057 295.981 236.788 294.757C237.505 293.525 238.521 292.545 239.81 291.798C241.106 291.06 242.584 290.682 244.23 290.684C245.971 290.687 247.342 291.058 248.342 291.808C249.344 292.55 250.039 293.542 250.439 294.777C250.838 296.012 251.036 297.372 251.035 298.85L251.012 315.668C251.011 316.606 251.315 317.376 251.938 317.99C252.549 318.602 253.308 318.919 254.193 318.921C255.132 318.921 255.892 318.616 256.483 317.995C257.075 317.384 257.383 316.603 257.383 315.676L257.407 298.795C257.41 296.21 257.087 293.856 256.457 291.756C255.86 289.645 254.731 287.967 253.13 286.708Z" fill="#181715"/>
<path d="M200.96 285.457C200.147 284.864 199.2 284.557 198.091 284.555C196.783 284.553 195.505 284.763 194.302 285.182C193.09 285.604 192.001 286.204 191.021 286.961C190.038 287.72 189.203 288.616 188.495 289.637C188.135 290.155 187.829 290.692 187.563 291.25L187.565 288.55C187.568 287.621 187.263 286.841 186.654 286.227C186.031 285.615 185.283 285.298 184.384 285.296C183.457 285.296 182.686 285.6 182.095 286.22C181.503 286.833 181.208 287.614 181.205 288.542L181.169 315.551C181.166 316.489 181.461 317.26 182.052 317.871C182.642 318.486 183.411 318.801 184.341 318.804C185.227 318.804 185.988 318.5 186.611 317.878C187.224 317.268 187.53 316.489 187.53 315.56L187.552 300.271C187.552 298.74 187.777 297.361 188.232 296.136C188.677 294.904 189.289 293.839 190.05 292.922C190.811 292.005 191.667 291.32 192.596 290.857C193.537 290.395 194.443 290.164 195.34 290.164C196.141 290.166 196.838 290.304 197.44 290.579C198.031 290.853 198.653 290.993 199.297 290.993C200.013 290.994 200.668 290.731 201.271 290.205C201.861 289.679 202.158 288.835 202.161 287.694C202.163 286.798 201.772 286.059 200.96 285.457Z" fill="#181715"/>
<path d="M289.33 308.028C288.485 309.789 287.3 311.18 285.792 312.19C284.279 313.212 282.53 313.717 280.535 313.713C278.542 313.711 276.791 313.201 275.271 312.177C273.774 311.151 272.595 309.768 271.745 308.004C270.901 306.241 270.471 304.277 270.475 302.116C270.476 299.912 270.913 297.937 271.761 296.187C272.617 294.449 273.799 293.067 275.33 292.057C276.862 291.037 278.593 290.532 280.555 290.534C282.538 290.536 284.299 291.046 285.808 292.07C287.314 293.096 288.495 294.47 289.335 296.21C290.178 297.952 290.61 299.927 290.606 302.142C290.611 304.305 290.187 306.278 289.33 308.028ZM293.572 284.95C292.633 284.948 291.872 285.263 291.279 285.907C290.679 286.539 290.384 287.308 290.381 288.195L290.38 289.462C289.906 288.911 289.357 288.384 288.727 287.865C287.586 286.934 286.237 286.162 284.677 285.571C283.127 284.978 281.44 284.668 279.614 284.666C276.776 284.662 274.189 285.398 271.879 286.881C269.553 288.368 267.717 290.411 266.361 293.026C265.006 295.642 264.317 298.658 264.313 302.095C264.309 305.451 264.989 308.448 266.336 311.077C267.696 313.717 269.54 315.787 271.87 317.299C274.207 318.811 276.833 319.564 279.769 319.567C281.424 319.571 282.963 319.287 284.42 318.72C285.854 318.152 287.111 317.425 288.179 316.561C289.057 315.846 289.774 315.108 290.344 314.349L290.343 315.709C290.343 316.648 290.637 317.42 291.236 318.033C291.826 318.646 292.597 318.962 293.526 318.962C294.411 318.964 295.163 318.66 295.784 318.038C296.396 317.428 296.717 316.648 296.717 315.718L296.754 288.203C296.756 287.275 296.44 286.494 295.83 285.881C295.207 285.258 294.47 284.951 293.572 284.95Z" fill="#181715"/>
<path d="M122.14 300.15L132.924 290.523C133.726 289.806 134.14 289.015 134.14 288.171C134.141 287.496 133.848 286.809 133.257 286.133C132.668 285.458 131.96 285.108 131.158 285.108C130.272 285.106 129.481 285.442 128.805 286.128L113.562 300.244L113.597 274.839C113.597 273.911 113.303 273.13 112.712 272.518C112.122 271.905 111.354 271.586 110.424 271.585C109.529 271.583 108.779 271.889 108.166 272.511C107.551 273.121 107.235 273.903 107.234 274.831L107.178 315.47C107.177 316.409 107.482 317.18 108.104 317.792C108.715 318.406 109.474 318.723 110.361 318.723C111.289 318.725 112.058 318.42 112.651 317.798C113.243 317.188 113.54 316.408 113.541 315.48L113.552 307.83L117.237 304.543L129.586 317.601C130.217 318.319 130.986 318.689 131.872 318.692C132.547 318.692 133.266 318.408 134.006 317.839C134.744 317.27 135.125 316.51 135.127 315.581C135.127 314.697 134.79 313.882 134.107 313.165L122.14 300.15Z" fill="#181715"/>
<path d="M164.943 307.858C164.084 309.62 162.912 311.011 161.401 312.021C159.893 313.041 158.14 313.547 156.145 313.544C154.152 313.542 152.4 313.031 150.895 312.008C149.386 310.982 148.207 309.598 147.365 307.834C146.514 306.07 146.092 304.108 146.096 301.946C146.099 299.741 146.525 297.768 147.381 296.017C148.228 294.28 149.422 292.898 150.953 291.886C152.483 290.866 154.225 290.362 156.176 290.365C158.171 290.367 159.922 290.876 161.428 291.901C162.938 292.925 164.117 294.301 164.958 296.041C165.799 297.783 166.23 299.758 166.227 301.974C166.225 304.136 165.799 306.109 164.943 307.858ZM169.183 284.78C168.243 284.779 167.485 285.093 166.893 285.736C166.301 286.37 166.004 287.139 166.003 288.025L166.002 289.302C165.527 288.753 164.979 288.224 164.347 287.707C163.199 286.777 161.849 286.004 160.309 285.411C158.759 284.818 157.072 284.509 155.247 284.508C152.398 284.503 149.823 285.24 147.499 286.724C145.186 288.207 143.349 290.252 141.983 292.867C140.619 295.482 139.938 298.498 139.935 301.937C139.93 305.291 140.601 308.289 141.959 310.918C143.317 313.558 145.16 315.627 147.489 317.139C149.819 318.652 152.457 319.404 155.387 319.409C157.045 319.411 158.595 319.128 160.043 318.561C161.489 317.992 162.745 317.266 163.802 316.403C164.678 315.686 165.397 314.938 165.968 314.18L165.965 315.539C165.963 316.479 166.259 317.249 166.847 317.864C167.438 318.476 168.209 318.792 169.137 318.793C170.034 318.795 170.782 318.491 171.396 317.869C172.008 317.258 172.326 316.477 172.327 315.548L172.364 288.034C172.366 287.105 172.061 286.324 171.439 285.711C170.819 285.087 170.069 284.782 169.183 284.78Z" fill="#181715"/>
<path d="M321.056 300.422L331.841 290.794C332.655 290.077 333.057 289.288 333.056 288.443C333.057 287.768 332.765 287.081 332.171 286.405C331.583 285.729 330.879 285.381 330.077 285.38C329.189 285.378 328.398 285.716 327.723 286.399L312.478 300.516L312.511 275.112C312.515 274.183 312.219 273.401 311.63 272.789C311.038 272.176 310.27 271.858 309.341 271.857C308.455 271.857 307.695 272.162 307.081 272.783C306.459 273.393 306.152 274.173 306.15 275.103L306.095 315.743C306.094 316.681 306.398 317.452 307.018 318.063C307.632 318.678 308.391 318.995 309.276 318.997C310.217 318.997 310.975 318.692 311.567 318.071C312.159 317.459 312.457 316.68 312.457 315.752L312.468 308.102L316.153 304.816L328.502 317.871C329.145 318.591 329.903 318.961 330.789 318.962C331.474 318.962 332.182 318.678 332.923 318.111C333.673 317.542 334.042 316.783 334.043 315.854C334.043 314.968 333.709 314.155 333.033 313.437L321.056 300.422Z" fill="#181715"/>
<path d="M441.839 298.72L423.438 298.695C423.568 298.051 423.727 297.428 423.927 296.881C424.489 295.414 425.207 294.235 426.094 293.349C426.981 292.453 428.029 291.81 429.218 291.412C430.402 291.012 431.637 290.814 432.911 290.817C434.358 290.818 435.73 291.126 437.027 291.75C438.325 292.363 439.421 293.24 440.303 294.37C441.188 295.501 441.705 296.8 441.827 298.287L441.829 298.72H441.839ZM443.813 289.586C442.379 288.117 440.706 286.966 438.817 286.14C436.93 285.314 434.968 284.889 432.932 284.885C430.221 284.882 427.637 285.586 425.195 287.007C422.745 288.427 420.768 290.462 419.257 293.119C417.747 295.775 416.981 298.96 416.976 302.705C416.971 306.019 417.677 308.962 419.104 311.529C420.529 314.104 422.539 316.122 425.155 317.583C427.757 319.051 430.808 319.786 434.287 319.789C436.491 319.792 438.604 319.373 440.631 318.522C442.648 317.679 444.23 316.702 445.37 315.595C446.31 314.836 446.778 313.983 446.779 313.053C446.779 312.336 446.526 311.703 446.022 311.174C445.516 310.646 444.883 310.371 444.111 310.369C443.521 310.369 442.877 310.559 442.191 310.938C441.684 311.359 441.081 311.812 440.406 312.275C439.721 312.74 438.876 313.128 437.861 313.455C436.838 313.768 435.574 313.924 434.041 313.923C432.005 313.921 430.16 313.442 428.495 312.481C426.838 311.518 425.534 310.176 424.555 308.435C423.838 307.156 423.387 305.709 423.199 304.108L445.324 304.137C446.177 304.139 446.918 303.864 447.551 303.318C448.195 302.769 448.534 302.062 448.577 301.219C448.537 298.887 448.086 296.723 447.247 294.749C446.404 292.776 445.255 291.044 443.813 289.586Z" fill="#181715"/>
<path d="M475.226 285.83C474.414 285.238 473.466 284.932 472.358 284.93C471.051 284.927 469.784 285.138 468.57 285.558C467.357 285.979 466.269 286.578 465.285 287.336C464.314 288.094 463.47 288.991 462.76 290.012C462.412 290.53 462.105 291.067 461.843 291.625L461.846 288.935C461.846 288.007 461.531 287.225 460.922 286.614C460.309 286 459.548 285.682 458.664 285.682C457.723 285.68 456.964 285.985 456.371 286.606C455.773 287.218 455.474 287.997 455.473 288.925L455.434 315.936C455.435 316.875 455.73 317.644 456.329 318.258C456.919 318.87 457.69 319.188 458.618 319.189C459.505 319.19 460.262 318.886 460.877 318.265C461.49 317.652 461.809 316.871 461.809 315.944L461.83 300.657C461.832 299.127 462.054 297.744 462.501 296.521C462.955 295.287 463.558 294.223 464.317 293.307C465.08 292.39 465.935 291.705 466.864 291.243C467.806 290.779 468.723 290.548 469.61 290.55C470.408 290.551 471.105 290.69 471.706 290.963C472.297 291.24 472.91 291.377 473.553 291.377C474.271 291.378 474.926 291.117 475.538 290.589C476.128 290.061 476.426 289.22 476.426 288.079C476.438 287.172 476.028 286.433 475.226 285.83Z" fill="#181715"/>
<path d="M407.262 285.358C406.376 285.357 405.617 285.663 404.99 286.283C404.38 286.894 404.072 287.676 404.072 288.603L404.035 315.864C404.034 316.804 404.337 317.574 404.948 318.188C405.572 318.8 406.32 319.117 407.216 319.119C408.154 319.12 408.916 318.815 409.507 318.194C410.099 317.583 410.396 316.802 410.396 315.874L410.433 288.611C410.434 287.684 410.14 286.901 409.55 286.289C408.97 285.667 408.199 285.358 407.262 285.358Z" fill="#181715"/>
<path d="M365.798 285.556C364.859 285.554 364.099 285.858 363.507 286.479C362.918 287.09 362.62 287.872 362.619 288.799L362.596 305.553C362.591 308.319 361.923 310.374 360.605 311.733C359.294 313.092 357.35 313.766 354.799 313.762C352.296 313.758 350.4 313.082 349.103 311.718C347.798 310.355 347.156 308.298 347.158 305.533L347.183 288.779C347.185 287.849 346.881 287.067 346.268 286.457C345.649 285.843 344.897 285.526 344.003 285.525C343.061 285.525 342.302 285.829 341.71 286.45C341.118 287.062 340.825 287.842 340.823 288.77L340.801 305.525C340.795 309.945 342.011 313.396 344.445 315.879C346.892 318.362 350.339 319.612 354.791 319.617C359.296 319.624 362.78 318.384 365.24 315.907C367.712 313.432 368.941 309.981 368.947 305.561L368.97 288.809C368.972 287.88 368.667 287.099 368.046 286.486C367.445 285.874 366.696 285.556 365.798 285.556Z" fill="#181715"/>
<path d="M397.576 285.726C396.766 285.133 395.815 284.825 394.708 284.823C393.399 284.821 392.133 285.031 390.92 285.452C389.707 285.872 388.618 286.471 387.638 287.231C386.655 287.988 385.822 288.884 385.109 289.906C384.762 290.424 384.455 290.95 384.19 291.508L384.193 288.818C384.195 287.89 383.881 287.109 383.27 286.496C382.649 285.883 381.9 285.566 381.012 285.566C380.075 285.563 379.313 285.868 378.723 286.489C378.12 287.101 377.823 287.882 377.822 288.809L377.784 315.82C377.782 316.759 378.08 317.53 378.679 318.14C379.268 318.753 380.039 319.071 380.965 319.073C381.852 319.073 382.603 318.768 383.227 318.147C383.836 317.536 384.158 316.756 384.156 315.828L384.178 300.54C384.179 299.01 384.391 297.629 384.851 296.405C385.304 295.172 385.907 294.107 386.668 293.19C387.429 292.274 388.283 291.588 389.213 291.125C390.152 290.663 391.07 290.433 391.957 290.433C392.761 290.434 393.453 290.573 394.056 290.847C394.647 291.123 395.26 291.261 395.902 291.261C396.62 291.264 397.273 290.999 397.886 290.472C398.478 289.945 398.776 289.103 398.779 287.963C398.8 287.066 398.387 286.328 397.576 285.726Z" fill="#181715"/>
</svg>
