<svg xmlns="http://www.w3.org/2000/svg" width="600" height="400" viewBox="0 0 600 400">
  <defs>
    <style>
      .cls-1 {
        font-size: 12px;
        font-family: MyriadPro-Regular, Myriad Pro;
      }

      .cls-2 {
        letter-spacing: -0.00301em;
      }

      .cls-3 {
        letter-spacing: -0.01497em;
      }

      .cls-4 {
        letter-spacing: 0.00399em;
      }

      .cls-5 {
        letter-spacing: 0.01701em;
      }

      .cls-6 {
        letter-spacing: 0.02401em;
      }

      .cls-7 {
        letter-spacing: 0.00008em;
      }

      .cls-8 {
        fill: #263238;
      }

      .cls-9 {
        fill: #fff;
      }

      .cls-10 {
        fill: #ff9800;
      }

      .cls-11 {
        fill: #ef6c00;
      }

      .cls-12 {
        fill: #d84315;
      }

      .cls-13 {
        fill: #bf360c;
      }

      .cls-14 {
        fill: #ffcc80;
      }
    </style>
  </defs>
  <title>PitschersWelt Thumbnail</title>
  <g id="Background">
    <text class="cls-1" transform="translate(230.9158 196.51075)">Kompl<tspan class="cls-2" x="32.75977" y="0">e</tspan><tspan class="cls-3" x="38.73535" y="0">x</tspan><tspan x="44.11133" y="0">es einfach e</tspan><tspan class="cls-4" x="102.77832" y="0">r</tspan><tspan class="cls-5" x="106.75" y="0">k</tspan><tspan x="112.58203" y="0">lä</tspan><tspan class="cls-6" x="121.19824" y="0">r</tspan><tspan class="cls-2" x="125.41016" y="0">t</tspan><tspan class="cls-7" x="129.3457" y="0">.</tspan></text>
    <rect class="cls-8" width="600" height="400"/>
  </g>
  <g id="Text">
    <g>
      <g>
        <g>
          <path class="cls-9" d="M185.82605,170.94927c0,11.28676-4.1327,13.5765-16.37446,13.5765h-6.93066v14.7493c0,.726-.16754.89355-.83771.89355H154.585c-.67017,0-.83772-.16754-.83772-.89355v-41.288c0-.61432.16755-.726.83772-.78186,4.91457-.44678,10.2815-.61432,14.861-.61432C181.68776,156.59091,185.82605,159.77421,185.82605,170.94927ZM162.52094,164.242v13.52065h6.0371c6.65143,0,8.38269-.89356,8.38269-6.59558,0-5.59032-1.73127-6.93066-8.38269-6.93066h-6.0371Z"/>
          <path class="cls-9" d="M199.7879,160.16514c0,2.84822-1.73127,4.52364-4.80288,4.52364-3.12746,0-4.91457-1.67542-4.91457-4.52364s1.78711-4.46779,4.91457-4.46779C198.05663,155.69735,199.7879,157.31692,199.7879,160.16514Zm-1.56373,8.71778a.74044.74044,0,0,1,.83771.83771v29.56c0,.61432-.27924.89355-.83771.89355h-6.59558c-.55847,0-.83771-.27923-.83771-.89355v-29.56a.74044.74044,0,0,1,.83771-.83771Z"/>
          <path class="cls-9" d="M215.10126,160.221c.55847-.16754.89356.22339.89356.83771v7.99176h5.138c.61432,0,.94941.27924.94941.83771V174.356c0,.55848-.33509.83772-.94941.83772h-5.138V190.4456c0,2.40143.83771,2.84821,3.295,2.84821h2.28975c.67017,0,.94941.22339.94941.83771v4.75262a.9286.9286,0,0,1-.89356,1.0611,24.03118,24.03118,0,0,1-4.747.50262c-4.80288,0-9.16456-.16754-9.16456-7.20431V175.19367h-3.295c-.61432,0-.89356-.27924-.89356-.83771v-4.46779c0-.55847.27924-.83771.89356-.83771h3.295v-6.20465c0-.55847.22339-.78186.78186-.89355Z"/>
          <path class="cls-9" d="M247.78314,169.3297c.67018.16754.89356.39093.89356.89355v4.2444c0,.61432-.22338.89356-.94941.89356H237.66917c-2.178,0-3.295.61432-3.295,2.01051v.55847c0,1.0611.67017,1.843,2.68067,2.569l7.15405,2.51313c4.75261,1.67542,5.86956,4.57948,5.86956,8.38269v.89356c0,6.48388-4.80288,8.15931-11.90108,8.15931a114.10382,114.10382,0,0,1-11.566-.55848c-.726,0-.94942-.22339-.94942-.83771v-4.52922c0-.61432.27924-.83771.94942-.83771h11.4543c2.9599,0,3.85347-.39093,3.85347-1.89882v-.50262c0-1.0611-.61433-1.78712-3.07161-2.62483l-6.87481-2.45728c-4.41194-1.50788-5.69644-4.91458-5.69644-8.49439v-1.0611c0-5.98126,4.63532-8.04761,12.68293-8.04761A54.03023,54.03023,0,0,1,247.78314,169.3297Z"/>
          <path class="cls-9" d="M277.62239,169.3297a.98886.98886,0,0,1,.94942,1.11694v4.41195c0,.61432-.33509.89356-.94942.89356h-9.1087c-5.14354,0-5.91983,1.73126-5.91983,8.77362,0,6.98651.78186,8.77362,5.91983,8.77362h9.1087c.61433,0,.94942.27924.94942.83771v4.46779c0,.67017-.33509.94941-.94942,1.06111a47.29081,47.29081,0,0,1-9.1087.78186c-11.90108,0-14.19082-3.1833-14.19082-15.92209,0-12.79464,2.28974-15.92209,14.19082-15.92209A51.62855,51.62855,0,0,1,277.62239,169.3297Z"/>
          <path class="cls-9" d="M291.24915,156.926a.7814.7814,0,0,1,.83771.89356v11.06337a58.48369,58.48369,0,0,1,5.91983-.27924c10.67243,0,13.4648,2.0105,13.4648,13.409v17.26243c0,.61432-.27924.89355-.83771.89355h-6.65143c-.55847,0-.78186-.27923-.78186-.89355V184.13484c0-7.99176-.89356-8.38269-6.03151-8.38269h-5.03186v23.52292c0,.61432-.27923.89355-.83771.89355h-6.70168c-.55848,0-.78186-.27923-.78186-.89355V157.81955a.7814.7814,0,0,1,.83771-.89356Z"/>
          <path class="cls-9" d="M344.77887,184.13484v1.73127c0,1.11694-.33508,1.50787-1.78712,1.50787H325.4445c.1117,5.03186,1.452,5.91983,6.31633,5.91983h9.89057a.74044.74044,0,0,1,.83771.83771v4.63533a.76851.76851,0,0,1-.78186.89356,57.33262,57.33262,0,0,1-10.67244.78186c-11.28675,0-14.02327-3.1833-14.02327-15.92209,0-12.79463,2.73652-15.92209,14.02327-15.92209C342.03677,168.60368,344.723,171.67529,344.77887,184.13484Zm-19.39021-2.178H336.452c-.05585-4.91457-1.34034-6.20464-5.41721-6.20464C326.8407,175.75215,325.44451,177.04222,325.38866,181.95679Z"/>
          <path class="cls-9" d="M367.45849,169.218c.61431.16754.89354.39093.89354,1.117V174.92c0,.55847-.33507.83771-.94941.83771h-5.24967c-2.90407,0-3.90931.44678-3.90931,2.84822v20.6747c0,.61432-.27924.89355-.83771.89355h-6.65141c-.55848,0-.83771-.27923-.83771-.89355V176.48374c0-7.04235,5.02626-7.88006,10.11395-7.88006A44.35167,44.35167,0,0,1,367.45849,169.218Z"/>
          <path class="cls-9" d="M393.2153,169.3297c.67017.16754.89354.39093.89354.89355v4.2444c0,.61432-.2234.89356-.94941.89356H383.10131c-2.17806,0-3.295.61432-3.295,2.01051v.55847c0,1.0611.67018,1.843,2.68067,2.569l7.15405,2.51313c4.747,1.67542,5.86956,4.57948,5.86956,8.38269v.89356c0,6.48388-4.80286,8.15931-11.90107,8.15931a114.10483,114.10483,0,0,1-11.566-.55848c-.726,0-.94941-.22339-.94941-.83771v-4.52922c0-.61432.27924-.83771.94941-.83771h11.45431c2.9599,0,3.859-.39093,3.859-1.89882v-.50262c0-1.0611-.61431-1.78712-3.07161-2.62483l-6.87481-2.45728c-4.412-1.50788-5.69644-4.91458-5.69644-8.49439v-1.0611c0-5.98126,4.63532-8.04761,12.68295-8.04761A54.06272,54.06272,0,0,1,393.2153,169.3297Z"/>
          <path class="cls-9" d="M455.85374,156.926c.61431,0,.89355.22339.78188.89356L449.64911,193.802c-1.117,5.92541-2.2339,6.65143-8.32683,6.65143-6.98651,0-7.71252-.726-9.16454-6.65143l-4.97043-21.12148L422.161,193.802c-1.39618,5.92541-2.17806,6.65143-9.1087,6.65143-6.08738,0-7.20433-.726-8.3827-6.65143L397.739,157.81955c-.1117-.67017.16753-.89356.726-.89356h7.43328c.50264,0,.67018.22339.78188.89356l5.98127,32.01731c.33507,1.39618.55847,1.67542,1.28448,1.67542.89354,0,1.117-.27924,1.452-1.67542l7.32158-30.50943a1.11864,1.11864,0,0,1,1.17278-.89356h6.59558a1.06357,1.06357,0,0,1,1.11695.89356l7.37745,30.50943c.33507,1.39618.50264,1.67542,1.39618,1.67542.726,0,1.00525-.27924,1.28449-1.67542l5.98126-32.01731c.16754-.67017.27924-.89356.83771-.89356Z"/>
          <path class="cls-9" d="M488.08884,184.13484v1.73127c0,1.11694-.33507,1.50787-1.78712,1.50787H468.75448c.1117,5.03186,1.452,5.91983,6.31633,5.91983h9.89059a.74044.74044,0,0,1,.83771.83771v4.63533a.76851.76851,0,0,1-.78188.89356,57.33253,57.33253,0,0,1-10.67242.78186c-11.28677,0-14.02327-3.1833-14.02327-15.92209,0-12.79463,2.73653-15.92209,14.02327-15.92209C485.35234,168.60368,488.033,171.67529,488.08884,184.13484Zm-19.3902-2.178H479.762c-.05584-4.91457-1.34035-6.20464-5.4172-6.20464C470.15066,175.75215,468.75448,177.04222,468.69864,181.95679Z"/>
          <path class="cls-9" d="M500.77179,156.926a.74044.74044,0,0,1,.83771.83771v41.517c0,.61432-.27923.89355-.83771.89355h-6.59557c-.55848,0-.83771-.27923-.83771-.89355v-41.517a.74044.74044,0,0,1,.83771-.83771Z"/>
          <path class="cls-9" d="M517.6433,160.221c.55847-.16754.89354.22339.89354.83771v7.99176h5.14356c.61431,0,.94941.27924.94941.83771V174.356c0,.55848-.33507.83772-.94941.83772h-5.14356V190.4456c0,2.40143.83771,2.84821,3.295,2.84821h2.28973c.67018,0,.94941.22339.94941.83771v4.75262a.92859.92859,0,0,1-.89354,1.0611,24.03118,24.03118,0,0,1-4.747.50262c-4.80286,0-9.16454-.16754-9.16454-7.20431V175.19367h-3.295c-.61431,0-.89354-.27924-.89354-.83771v-4.46779c0-.55847.27923-.83771.89354-.83771h3.295v-6.20465c0-.55847.2234-.78186.78188-.89355Z"/>
        </g>
        <g>
          <path class="cls-10" d="M119.22246,170.56951l-13.34194,9.77329s9.76213-5.473,12.48189-15.77689c.93824-3.55189-2.47962-6.1097-4.13829-6.9865a21.9488,21.9488,0,1,0,9.60017,10.03577Z"/>
          <path class="cls-11" d="M118.36241,164.56591a4.691,4.691,0,0,0-.48587-3.57981s-6.28283,18.30677-33.97755,24.8465a21.88034,21.88034,0,0,0,8.18722,9.589c4.40636-1.19513,10.26475-2.80912,11.28676-3.77528,1.6475-1.5749,15.90534-16.89942,15.90534-16.89942l.96057-4.82521-1.01642.65341-9.25949,6.77429A26.249,26.249,0,0,0,118.36241,164.56591Z"/>
          <path class="cls-12" d="M130.46454,158.082c-1.748-2.31208-5.41161-2.89848-10.153-2.00492a.4594.4594,0,0,0-.10611.86564,3.13623,3.13623,0,0,1,1.16162.92706c2.85939,3.77528-4.07686,13.839-15.49206,22.473s-22.97562,12.57125-25.835,8.796a3.85725,3.85725,0,0,1-.58082-2.94874.46127.46127,0,0,0-.84329-.32391c-3.60216,5.64058-4.7582,10.56632-2.60249,13.42012,4.27233,5.65176,19.93193,1.00526,34.966-10.37086C126.01909,177.53368,134.74245,163.73379,130.46454,158.082Z"/>
          <path class="cls-13" d="M107.9022,182.99c12.00719-9.08637,19.98219-19.71413,20.53508-26.50517-1.977-.92707-4.78053-1.03876-8.12579-.40769a.4594.4594,0,0,0-.10611.86564,3.13623,3.13623,0,0,1,1.16162.92706c2.85939,3.77528-4.07686,13.839-15.49206,22.473-11.40962,8.634-22.97562,12.57125-25.835,8.796a3.85725,3.85725,0,0,1-.58082-2.94874.46109.46109,0,0,0-.84329-.32391c-2.16688,3.38993-3.4402,6.51739-3.64684,9.09754C80.98934,197.78952,94.68312,192.99223,107.9022,182.99Z"/>
          <path class="cls-14" d="M125.617,180.47683c-9.26508,13.543-25.01963,18.1504-25.1034,18.17274a21.91033,21.91033,0,0,0,25.1034-18.17274Z"/>
          <path class="cls-14" d="M101.92094,165.59351a39.74153,39.74153,0,0,1-19.79231,9.41586,21.24037,21.24037,0,0,0,.296,6.10412c.00558,0,.00558,0,.00558.00559,4.42312-1.62516,13.70495-5.84164,20.62444-14.43655A.78965.78965,0,0,0,101.92094,165.59351Z"/>
        </g>
      </g>
      <g>
        <path class="cls-9" d="M177.76666,240.54251l-4.74729-8.55472-3.0504,3.94456v4.61016h-1.78832V224.4889H169.969V233.639q.16054-.22913.44708-.62993.28766-.40137.631-.86071.3445-.45823.67675-.89416.33114-.43482.58422-.757l4.65587-6.00826h1.94886l-4.70046,6.03167,5.59574,10.02194Z"/>
        <path class="cls-9" d="M191.48008,234.44171a8.18857,8.18857,0,0,1-.41363,2.71816,5.98745,5.98745,0,0,1-1.12607,1.99457,4.62728,4.62728,0,0,1-1.67794,1.22752,5.43073,5.43073,0,0,1-4.12517.01115,4.41933,4.41933,0,0,1-1.64338-1.19295,5.82693,5.82693,0,0,1-1.0915-1.96,8.30737,8.30737,0,0,1-.40248-2.707,8.11872,8.11872,0,0,1,.41363-2.70589,5.75188,5.75188,0,0,1,1.12606-1.96,4.72342,4.72342,0,0,1,1.67794-1.2041,5.20623,5.20623,0,0,1,2.06816-.41364,5.39377,5.39377,0,0,1,2.05813.39022,4.38962,4.38962,0,0,1,1.64338,1.16955,5.73378,5.73378,0,0,1,1.0915,1.93771A8.23314,8.23314,0,0,1,191.48008,234.44171Zm-1.7192.04571a5.53146,5.53146,0,0,0-.97-3.56548,3.15289,3.15289,0,0,0-2.56207-1.18181,3.11936,3.11936,0,0,0-2.55091,1.18181,5.58054,5.58054,0,0,0-.95771,3.56548,5.7364,5.7364,0,0,0,.95771,3.60117,3.083,3.083,0,0,0,2.55091,1.21525,3.11568,3.11568,0,0,0,2.56207-1.21525A5.68549,5.68549,0,0,0,189.76088,234.48742Z"/>
        <path class="cls-9" d="M208.38214,240.54251v-7.04067a4.97181,4.97181,0,0,0-.64219-2.91326,2.28957,2.28957,0,0,0-1.94887-.84845,2.41211,2.41211,0,0,0-1.95.883,4.50191,4.50191,0,0,0-.73361,2.8787v7.04067h-1.72031v-7.04067a4.84208,4.84208,0,0,0-.66449-2.91326,2.30348,2.30348,0,0,0-1.92656-.84845,2.40256,2.40256,0,0,0-1.96113.883,4.55605,4.55605,0,0,0-.72246,2.8787v7.04067h-1.7192V228.50258h1.7192v1.46722a3.59445,3.59445,0,0,1,1.21525-1.24981,3.413,3.413,0,0,1,1.83514-.4705,3.36745,3.36745,0,0,1,2.076.59648,4.14152,4.14152,0,0,1,1.2264,1.46834,7.29286,7.29286,0,0,1,.59648-.815,3.29452,3.29452,0,0,1,.757-.65334,3.83039,3.83039,0,0,1,.99674-.43593,4.779,4.779,0,0,1,1.29664-.16055,3.78829,3.78829,0,0,1,2.91215,1.1584,5.48349,5.48349,0,0,1,1.07812,3.79516v7.33946Z"/>
        <path class="cls-9" d="M223.26621,234.32688a9.94292,9.94292,0,0,1-.35566,2.80957,6.20887,6.20887,0,0,1-.97443,2.018,4.13543,4.13543,0,0,1-1.44493,1.22752,3.89459,3.89459,0,0,1-1.766.41252,4.02745,4.02745,0,0,1-1.94886-.43593,5.20216,5.20216,0,0,1-1.44493-1.16954v4.81642l-1.72031.96328V228.50258h1.72031v1.46722a6.80194,6.80194,0,0,1,1.51294-1.2041,4.38767,4.38767,0,0,1,3.79627-.16055,3.69389,3.69389,0,0,1,1.3758,1.08927,5.39768,5.39768,0,0,1,.91757,1.892A10.03638,10.03638,0,0,1,223.26621,234.32688Zm-1.72031.02341a6.09745,6.09745,0,0,0-.79939-3.45177,2.56986,2.56986,0,0,0-2.23986-1.15839,3.34493,3.34493,0,0,0-1.74707.47049,5.29086,5.29086,0,0,0-1.4282,1.27323v6.00826a4.376,4.376,0,0,0,1.33678,1.28438,3.49422,3.49422,0,0,0,1.90761.52735,2.41475,2.41475,0,0,0,2.23875-1.261A7.49091,7.49091,0,0,0,221.5459,234.35029Z"/>
        <path class="cls-9" d="M226.31549,240.54251V224.78658l1.72031-.96328v16.71921Z"/>
        <path class="cls-9" d="M240.90076,234.16633c0,.21518-.00334.39022-.01114.52735a2.63559,2.63559,0,0,1-.05686.41364h-8.02737a5.434,5.434,0,0,0,.9867,3.07269,2.82971,2.82971,0,0,0,2.36138,1.12383,4.67968,4.67968,0,0,0,1.77829-.29768,8.99929,8.99929,0,0,0,1.54749-.84956l.80274,1.23867q-.55022.3445-1.03241.60762a6.26,6.26,0,0,1-.98558.43593,6.66331,6.66331,0,0,1-1.05471.26424,7.56707,7.56707,0,0,1-1.23866.09142,4.89011,4.89011,0,0,1-1.6969-.32109,4.07775,4.07775,0,0,1-1.57091-1.06586,5.827,5.827,0,0,1-1.15839-1.96113,8.49445,8.49445,0,0,1-.45823-2.98127,8.26408,8.26408,0,0,1,.37795-2.59217,5.926,5.926,0,0,1,1.04356-1.94887,4.62568,4.62568,0,0,1,1.57091-1.23867,4.5194,4.5194,0,0,1,1.98343-.43593,4.74152,4.74152,0,0,1,2.076.43593,4.27409,4.27409,0,0,1,1.5252,1.22752,5.4169,5.4169,0,0,1,.92872,1.87974A8.67184,8.67184,0,0,1,240.90076,234.16633Zm-2.49963-3.32467a2.70126,2.70126,0,0,0-2.36138-1.10153,2.8149,2.8149,0,0,0-2.2131.97555,5.05381,5.05381,0,0,0-1.02126,2.99242h6.491A5.49473,5.49473,0,0,0,238.40113,230.84166Z"/>
        <path class="cls-9" d="M249.8457,240.54251l-2.3848-4.17423-.3668-.66449-.36681.66449-2.40821,4.17423h-1.78943l3.716-6.21563-3.46291-5.8243h1.90315l2.13283,3.7383.3668.66449.36681-.66449,2.15624-3.7383h1.78831l-3.46291,5.77859,3.71488,6.26134Z"/>
        <path class="cls-9" d="M263.30714,234.16633c0,.21518-.00334.39022-.01115.52735a2.63324,2.63324,0,0,1-.05686.41364h-8.02736a5.434,5.434,0,0,0,.9867,3.07269,2.8297,2.8297,0,0,0,2.36138,1.12383,4.6796,4.6796,0,0,0,1.77828-.29768,8.999,8.999,0,0,0,1.5475-.84956l.80274,1.23867q-.55022.3445-1.03241.60762a6.26,6.26,0,0,1-.98558.43593,6.66359,6.66359,0,0,1-1.05471.26424,7.56711,7.56711,0,0,1-1.23867.09142,4.8901,4.8901,0,0,1-1.69689-.32109,4.07775,4.07775,0,0,1-1.57091-1.06586,5.827,5.827,0,0,1-1.15839-1.96113,8.49445,8.49445,0,0,1-.45823-2.98127,8.26408,8.26408,0,0,1,.37795-2.59217,5.92577,5.92577,0,0,1,1.04356-1.94887,4.62568,4.62568,0,0,1,1.57091-1.23867,4.5194,4.5194,0,0,1,1.98343-.43593,4.74152,4.74152,0,0,1,2.076.43593,4.27409,4.27409,0,0,1,1.5252,1.22752,5.41708,5.41708,0,0,1,.92872,1.87974A8.67184,8.67184,0,0,1,263.30714,234.16633Zm-2.49963-3.32467a2.70126,2.70126,0,0,0-2.36138-1.10153,2.81488,2.81488,0,0,0-2.2131.97555,5.05381,5.05381,0,0,0-1.02126,2.99242h6.491A5.49473,5.49473,0,0,0,260.80751,230.84166Z"/>
        <path class="cls-9" d="M273.513,237.40292a3.13089,3.13089,0,0,1-.35565,1.53523,3.19039,3.19039,0,0,1-.92872,1.05471,3.95412,3.95412,0,0,1-1.31894.60763,6.03487,6.03487,0,0,1-1.5252.194,6.10994,6.10994,0,0,1-2.30453-.43036,7.67231,7.67231,0,0,1-1.93771-1.13052l1.009-1.25316a5.70285,5.70285,0,0,0,1.55976.98113,4.43421,4.43421,0,0,0,1.7192.34227,2.85733,2.85733,0,0,0,1.83514-.49056,1.66317,1.66317,0,0,0,.59648-1.358,1.45359,1.45359,0,0,0-.1494-.66226,1.93484,1.93484,0,0,0-.48164-.582,4.86,4.86,0,0,0-.87186-.57084q-.5385-.2843-1.34124-.62769-.89472-.38967-1.5475-.74476a4.59836,4.59836,0,0,1-1.067-.76818,2.59451,2.59451,0,0,1-.60762-.92872,3.52988,3.52988,0,0,1-.19511-1.2487,2.71675,2.71675,0,0,1,.28653-1.24982,3.10459,3.10459,0,0,1,.78044-.97443,3.431,3.431,0,0,1,1.18069-.62992,5.00217,5.00217,0,0,1,1.514-.21853,6.24,6.24,0,0,1,2.20083.36124,5.53773,5.53773,0,0,1,1.65119.94321l-.96329,1.25985a5.71385,5.71385,0,0,0-1.3758-.81054,4.44538,4.44538,0,0,0-1.62777-.26312,2.33292,2.33292,0,0,0-1.47948.4114,1.30505,1.30505,0,0,0-.51621,1.07255,1.58431,1.58431,0,0,0,.126.66226,1.61394,1.61394,0,0,0,.43593.53627,4.28686,4.28686,0,0,0,.82615.52512q.51508.26256,1.27211.60428.84789.38967,1.514.73362a5.3722,5.3722,0,0,1,1.135.76817,2.79943,2.79943,0,0,1,.71131.98558A3.45356,3.45356,0,0,1,273.513,237.40292Z"/>
        <path class="cls-9" d="M291.4464,234.16633c0,.21518-.00335.39022-.01115.52735a2.63559,2.63559,0,0,1-.05686.41364H283.351a5.43405,5.43405,0,0,0,.9867,3.07269,2.82971,2.82971,0,0,0,2.36138,1.12383,4.67965,4.67965,0,0,0,1.77829-.29768,8.99972,8.99972,0,0,0,1.5475-.84956l.80273,1.23867q-.5502.3445-1.03241.60762a6.26,6.26,0,0,1-.98558.43593,6.66346,6.66346,0,0,1-1.0547.26424,7.5672,7.5672,0,0,1-1.23867.09142,4.89011,4.89011,0,0,1-1.6969-.32109,4.07782,4.07782,0,0,1-1.57091-1.06586,5.82713,5.82713,0,0,1-1.15839-1.96113,8.49445,8.49445,0,0,1-.45823-2.98127,8.26407,8.26407,0,0,1,.378-2.59217,5.92594,5.92594,0,0,1,1.04355-1.94887,4.62568,4.62568,0,0,1,1.57091-1.23867,4.5194,4.5194,0,0,1,1.98343-.43593,4.74159,4.74159,0,0,1,2.076.43593,4.27426,4.27426,0,0,1,1.5252,1.22752,5.41725,5.41725,0,0,1,.92872,1.87974A8.67184,8.67184,0,0,1,291.4464,234.16633Zm-2.49963-3.32467a2.70128,2.70128,0,0,0-2.36139-1.10153,2.81491,2.81491,0,0,0-2.2131.97555,5.05388,5.05388,0,0,0-1.02126,2.99242h6.491A5.49473,5.49473,0,0,0,288.94677,230.84166Z"/>
        <path class="cls-9" d="M296.62962,225.13109a1.17158,1.17158,0,0,1-.35565.85959,1.1448,1.1448,0,0,1-.8373.35566,1.233,1.233,0,0,1-.89416-.35566,1.14843,1.14843,0,0,1-.36681-.85959,1.17869,1.17869,0,0,1,.36681-.883,1.23759,1.23759,0,0,1,.89416-.35566,1.14914,1.14914,0,0,1,.8373.35566A1.203,1.203,0,0,1,296.62962,225.13109Zm-2.08711,15.41142V228.50258h1.72031v12.03993Z"/>
        <path class="cls-9" d="M307.4989,240.54251v-7.04067a4.68406,4.68406,0,0,0-.699-2.85529,2.53708,2.53708,0,0,0-2.144-.90642,2.82538,2.82538,0,0,0-2.12168.89528,4.02956,4.02956,0,0,0-.85959,2.86643v7.04067h-1.72031V228.50258h1.72031v1.46722a4.21934,4.21934,0,0,1,1.35239-1.23866,3.85012,3.85012,0,0,1,1.97227-.48165,5.01407,5.01407,0,0,1,1.74373.28765,3.3066,3.3066,0,0,1,1.33009.89416,4.1475,4.1475,0,0,1,.84844,1.53635,7.3738,7.3738,0,0,1,.29768,2.2354v7.33946Z"/>
        <path class="cls-9" d="M316.16845,225.45218a1.48339,1.48339,0,0,0-.883.252,1.17489,1.17489,0,0,0-.35454,1.009v1.78943h2.36138v1.44492H314.9309v10.595h-1.72143v-10.595h-1.65118v-1.44492h1.65118V226.8514a2.86493,2.86493,0,0,1,.79159-2.28223,3.0502,3.0502,0,0,1,2.05144-.67675,6.60849,6.60849,0,0,1,.86071.04571,3.36821,3.36821,0,0,1,.65334.16055v1.62888A3.29645,3.29645,0,0,0,316.16845,225.45218Z"/>
        <path class="cls-9" d="M326.42006,240.54251v-1.46834a6.45775,6.45775,0,0,1-1.54861,1.20411,4.40311,4.40311,0,0,1-2.2131.5162,5.08189,5.08189,0,0,1-1.3981-.19511,3.39767,3.39767,0,0,1-1.23867-.64219,3.17763,3.17763,0,0,1-.883-1.18069,4.44562,4.44562,0,0,1-.33224-1.83514,3.66811,3.66811,0,0,1,.3891-1.74261,3.54659,3.54659,0,0,1,1.02126-1.20411,4.18324,4.18324,0,0,1,1.46723-.6879,6.8613,6.8613,0,0,1,1.73145-.2174,7.01988,7.01988,0,0,1,1.6969.194,5.3046,5.3046,0,0,1,1.30779.49391V232.3546a2.32919,2.32919,0,0,0-2.60889-2.66018,5.98036,5.98036,0,0,0-1.75041.24082,6.9471,6.9471,0,0,0-1.52186.67675l-.64-1.39921a7.96184,7.96184,0,0,1,1.83069-.699,8.81787,8.81787,0,0,1,2.19749-.26424,4.79579,4.79579,0,0,1,3.07938.90643,3.61491,3.61491,0,0,1,1.13387,2.99242v8.39417Zm0-5.38948a5.84722,5.84722,0,0,0-1.29107-.50506,7.26859,7.26859,0,0,0-1.79389-.18284,3.17857,3.17857,0,0,0-2.067.60762,2.13555,2.13555,0,0,0-.74253,1.75376,2.24782,2.24782,0,0,0,2.445,2.56876,3.83127,3.83127,0,0,0,2.03249-.52736,4.78976,4.78976,0,0,0,1.417-1.28438Z"/>
        <path class="cls-9" d="M338.96059,230.9565a5.5846,5.5846,0,0,0-1.32229-.90642,3.6744,3.6744,0,0,0-1.57648-.31,2.88352,2.88352,0,0,0-1.3234.31,3.01035,3.01035,0,0,0-1.05805.91757,4.648,4.648,0,0,0-.70128,1.47949,7.17353,7.17353,0,0,0-.25309,1.99457,6.20005,6.20005,0,0,0,.8975,3.54319,2.86271,2.86271,0,0,0,2.50744,1.31894,3.17371,3.17371,0,0,0,1.51851-.3445,5.74108,5.74108,0,0,0,1.26543-.93988l1.03575,1.10042a5.97067,5.97067,0,0,1-1.6746,1.22752,5.31735,5.31735,0,0,1-4.1051.06912,4.42626,4.42626,0,0,1-1.61663-1.15839,5.88174,5.88174,0,0,1-1.12383-1.93771,9.11736,9.11736,0,0,1,.03457-5.608,5.81881,5.81881,0,0,1,1.19184-1.96,4.64634,4.64634,0,0,1,1.66344-1.1361,5.05746,5.05746,0,0,1,1.8686-.36681,5.44409,5.44409,0,0,1,2.16738.40137,6.25662,6.25662,0,0,1,1.64,1.02126Z"/>
        <path class="cls-9" d="M350.316,240.54251v-7.04067a4.68348,4.68348,0,0,0-.70016-2.85529,2.53707,2.53707,0,0,0-2.144-.90642,2.82882,2.82882,0,0,0-2.12168.89528,4.02956,4.02956,0,0,0-.85959,2.86643v7.04067h-1.72031V224.78658l1.72031-.96328v6.1465a4.21183,4.21183,0,0,1,1.3535-1.23866,3.84446,3.84446,0,0,1,1.97228-.48165,5.00316,5.00316,0,0,1,1.74261.28765,3.30653,3.30653,0,0,1,1.33009.89416,4.13174,4.13174,0,0,1,.84844,1.53635,7.37378,7.37378,0,0,1,.29769,2.2354v7.33946Z"/>
        <path class="cls-9" d="M370.45127,234.16633c0,.21518-.00335.39022-.01115.52735a2.51267,2.51267,0,0,1-.058.41364h-8.02625a5.434,5.434,0,0,0,.9867,3.07269,2.82971,2.82971,0,0,0,2.36138,1.12383,4.67357,4.67357,0,0,0,1.77717-.29768,9.006,9.006,0,0,0,1.54861-.84956l.80274,1.23867q-.55021.3445-1.03241.60762a6.26,6.26,0,0,1-.98558.43593,6.64669,6.64669,0,0,1-1.05582.26424,7.553,7.553,0,0,1-1.23755.09142,4.89011,4.89011,0,0,1-1.6969-.32109,4.08961,4.08961,0,0,1-1.572-1.06586,5.8438,5.8438,0,0,1-1.15728-1.96113,8.46725,8.46725,0,0,1-.45935-2.98127,8.23107,8.23107,0,0,1,.37907-2.59217,5.926,5.926,0,0,1,1.04356-1.94887,4.62568,4.62568,0,0,1,1.57091-1.23867,4.5194,4.5194,0,0,1,1.98343-.43593,4.745,4.745,0,0,1,2.076.43593,4.26084,4.26084,0,0,1,1.52409,1.22752,5.39782,5.39782,0,0,1,.92872,1.87974A8.62858,8.62858,0,0,1,370.45127,234.16633Zm-2.49964-3.32467a2.702,2.702,0,0,0-2.36249-1.10153,2.81806,2.81806,0,0,0-2.2131.97555,5.06131,5.06131,0,0,0-1.02015,2.99242h6.4899A5.48438,5.48438,0,0,0,367.95163,230.84166Z"/>
        <path class="cls-9" d="M379.57793,230.2909a3.84871,3.84871,0,0,0-.79159-.33225,3.63183,3.63183,0,0,0-1.02014-.126,2.22415,2.22415,0,0,0-1.93772.96328,4.60647,4.60647,0,0,0-.67675,2.68248v7.06408h-1.72031V228.50258h1.72031v1.49064a3.48417,3.48417,0,0,1,1.21526-1.23867,3.25072,3.25072,0,0,1,1.766-.50506,6.455,6.455,0,0,1,1.11268.08028,3.6441,3.6441,0,0,1,.76817.21852Z"/>
        <path class="cls-9" d="M389.39361,240.54251l-3.05039-6.32935-2.08712,2.86643v3.46292h-1.72031V224.78658l1.72031-.96328v11.00863l.48164-.73361,3.94456-5.59574h1.92657l-3.16524,4.26565,3.80743,7.77428Z"/>
        <path class="cls-9" d="M394.00266,240.54251V224.78658l1.72031-.96328v16.71921Z"/>
        <path class="cls-9" d="M406.318,240.54251v-1.46834a6.45756,6.45756,0,0,1-1.54861,1.20411,4.40311,4.40311,0,0,1-2.2131.5162,5.08189,5.08189,0,0,1-1.3981-.19511,3.39767,3.39767,0,0,1-1.23867-.64219,3.17763,3.17763,0,0,1-.883-1.18069,4.44562,4.44562,0,0,1-.33224-1.83514,3.66811,3.66811,0,0,1,.3891-1.74261,3.54659,3.54659,0,0,1,1.02126-1.20411,4.18333,4.18333,0,0,1,1.46723-.6879,6.86132,6.86132,0,0,1,1.73146-.2174,7.01985,7.01985,0,0,1,1.69689.194,5.3046,5.3046,0,0,1,1.30779.49391V232.3546a2.32919,2.32919,0,0,0-2.60889-2.66018,5.9804,5.9804,0,0,0-1.75041.24082,6.9471,6.9471,0,0,0-1.52186.67675l-.64-1.39921a7.96184,7.96184,0,0,1,1.83069-.699,8.81787,8.81787,0,0,1,2.19749-.26424,4.79582,4.79582,0,0,1,3.07939.90643,3.61493,3.61493,0,0,1,1.13386,2.99242v8.39417ZM402.74022,225.509a1.24669,1.24669,0,0,1-1.23867,1.24982,1.25761,1.25761,0,0,1-.9053-.36346,1.17885,1.17885,0,0,1-.37907-.88636,1.21875,1.21875,0,0,1,.37907-.8975,1.24116,1.24116,0,0,1,.9053-.37461,1.18,1.18,0,0,1,.87186.37461A1.242,1.242,0,0,1,402.74022,225.509Zm3.57775,9.644a5.84722,5.84722,0,0,0-1.29107-.50506,7.26859,7.26859,0,0,0-1.79389-.18284,3.17854,3.17854,0,0,0-2.067.60762,2.13553,2.13553,0,0,0-.74254,1.75376,2.24783,2.24783,0,0,0,2.445,2.56876,3.83126,3.83126,0,0,0,2.03248-.52736,4.78976,4.78976,0,0,0,1.41705-1.28438Zm.87075-9.644a1.19651,1.19651,0,0,1-.36681.88636,1.28161,1.28161,0,0,1-1.78832,0,1.19651,1.19651,0,0,1-.3668-.88636,1.23752,1.23752,0,0,1,.3668-.8975,1.25444,1.25444,0,0,1,1.78832,0A1.23753,1.23753,0,0,1,407.18872,225.509Z"/>
        <path class="cls-9" d="M417.6923,230.2909a3.84871,3.84871,0,0,0-.79159-.33225,3.63183,3.63183,0,0,0-1.02014-.126,2.22415,2.22415,0,0,0-1.93772.96328,4.60647,4.60647,0,0,0-.67675,2.68248v7.06408h-1.72031V228.50258h1.72031v1.49064a3.48414,3.48414,0,0,1,1.21525-1.23867,3.25076,3.25076,0,0,1,1.766-.50506,6.455,6.455,0,0,1,1.11269.08028,3.6441,3.6441,0,0,1,.76817.21852Z"/>
        <path class="cls-9" d="M423.08178,229.9475v7.84229a1.80339,1.80339,0,0,0,.26424,1.12383,1.17651,1.17651,0,0,0,.951.3211,4.43987,4.43987,0,0,0,.90642-.08028,3.98,3.98,0,0,0,.79047-.26311l-.11483,1.49063a5.61228,5.61228,0,0,1-1.02015.31,6.25819,6.25819,0,0,1-1.2041.10257,2.26226,2.26226,0,0,1-1.70805-.60763,3.03353,3.03353,0,0,1-.58533-2.12167V229.9475h-1.49063v-1.44492h1.49063v-3.716l1.72031-.96328v4.67928h2.98128v1.44492Z"/>
        <path class="cls-9" d="M432.09473,239.30384a1.415,1.415,0,0,1-.44708,1.05471,1.48507,1.48507,0,0,1-2.5342-1.05471,1.51457,1.51457,0,0,1,.43594-1.07812,1.4301,1.4301,0,0,1,2.09826,0A1.49353,1.49353,0,0,1,432.09473,239.30384Z"/>
      </g>
    </g>
  </g>
</svg>
