<svg width="600" height="400" viewBox="0 0 600 400" fill="none" xmlns="http://www.w3.org/2000/svg">
<rect width="600" height="400" fill="#E20074"/>
<path d="M218.555 220.602H225.422C225.172 223.992 224.219 226.828 222.562 229.109C220.297 232.219 217.109 233.773 213 233.773C209.109 233.773 206.023 232.438 203.742 229.766C200.977 226.5 199.594 222.273 199.594 217.086C199.594 211.992 200.93 207.852 203.602 204.664C206.055 201.742 209.242 200.281 213.164 200.281C217.367 200.281 220.641 201.969 222.984 205.344C224.312 207.266 225.062 209.406 225.234 211.766L218.438 211.789C218.234 210.539 217.898 209.523 217.43 208.742C216.43 207.008 214.977 206.141 213.07 206.141C210.945 206.141 209.32 207.148 208.195 209.164C207.039 211.258 206.461 213.875 206.461 217.016C206.461 220.203 207.062 222.859 208.266 224.984C209.359 226.938 210.938 227.914 213 227.914C214.609 227.914 215.867 227.32 216.773 226.133C217.68 224.93 218.273 223.086 218.555 220.602ZM229.383 233V201.008H236.25V227.047H248.812V233H229.383ZM265.57 200.281C269.367 200.281 272.492 201.656 274.945 204.406C277.742 207.516 279.141 211.719 279.141 217.016C279.141 221.547 278.086 225.336 275.977 228.383C274.727 230.18 273.148 231.555 271.242 232.508C269.539 233.352 267.648 233.773 265.57 233.773C261.039 233.773 257.5 231.938 254.953 228.266C252.891 225.297 251.859 221.469 251.859 216.781C251.859 211.688 253.195 207.625 255.867 204.594C258.398 201.719 261.633 200.281 265.57 200.281ZM265.523 206.141C263.398 206.141 261.758 207.133 260.602 209.117C259.352 211.273 258.727 213.844 258.727 216.828C258.727 220.109 259.344 222.812 260.578 224.938C261.094 225.828 261.812 226.547 262.734 227.094C263.656 227.641 264.609 227.914 265.594 227.914C266.531 227.914 267.414 227.672 268.242 227.188C269.086 226.688 269.766 226.008 270.281 225.148C271.609 222.945 272.273 220.203 272.273 216.922C272.273 213.828 271.664 211.227 270.445 209.117C269.289 207.133 267.648 206.141 265.523 206.141ZM283.078 201.008H289.664V219.641C289.664 222.688 290.086 224.812 290.93 226.016C291.836 227.281 293.227 227.914 295.102 227.914C297.133 227.914 298.516 227.047 299.25 225.312C299.766 224.125 300.023 222.227 300.023 219.617V201.008H306.891V219.266C306.891 222.141 306.688 224.32 306.281 225.805C305.578 228.352 304.312 230.32 302.484 231.711C300.672 233.086 298.164 233.773 294.961 233.773C290.367 233.773 287.078 232.227 285.094 229.133C284.359 227.977 283.836 226.648 283.523 225.148C283.227 223.648 283.078 221.656 283.078 219.172V201.008ZM312.023 233V201.008H321.891C326.234 201.008 329.648 202.164 332.133 204.477C335.18 207.289 336.703 211.43 336.703 216.898C336.703 222.242 335.266 226.383 332.391 229.32C330.828 230.93 329.023 231.977 326.977 232.461C325.523 232.82 323.82 233 321.867 233H312.023ZM318.891 227.141H321.961C324.398 227.141 326.172 226.562 327.281 225.406C328.984 223.609 329.836 220.766 329.836 216.875C329.836 213.656 329.117 211.133 327.68 209.305C326.414 207.68 324.445 206.867 321.773 206.867H318.891V227.141ZM357.68 201.008H364.711L374.836 233H367.688L365.695 225.852H356.578L354.562 233H347.531L357.68 201.008ZM358.055 220.672H364.266L361.172 209.633L358.055 220.672ZM377.742 233V201.008H387.609C391.953 201.008 395.367 202.164 397.852 204.477C400.898 207.289 402.422 211.43 402.422 216.898C402.422 222.242 400.984 226.383 398.109 229.32C396.547 230.93 394.742 231.977 392.695 232.461C391.242 232.82 389.539 233 387.586 233H377.742ZM384.609 227.141H387.68C390.117 227.141 391.891 226.562 393 225.406C394.703 223.609 395.555 220.766 395.555 216.875C395.555 213.656 394.836 211.133 393.398 209.305C392.133 207.68 390.164 206.867 387.492 206.867H384.609V227.141ZM420.539 233H412.898L404.156 201.008H411.375L416.883 224.07L422.391 201.008H429.398L420.539 233ZM432.305 233V201.008H439.172V233H432.305ZM443.086 223.648H450C450.188 224.898 450.477 225.828 450.867 226.438C451.68 227.688 452.852 228.312 454.383 228.312C455.617 228.312 456.617 227.945 457.383 227.211C458.148 226.477 458.531 225.516 458.531 224.328C458.531 223.094 458.008 222.047 456.961 221.188C456.523 220.828 456.07 220.547 455.602 220.344C455.148 220.125 454.18 219.75 452.695 219.219C450.07 218.297 448.172 217.375 447 216.453C444.672 214.609 443.508 212.195 443.508 209.211C443.508 206.648 444.32 204.562 445.945 202.953C447.758 201.172 450.266 200.281 453.469 200.281C456.547 200.281 459.023 201.07 460.898 202.648C462.773 204.227 463.914 206.492 464.32 209.445H457.617C457.461 208.211 457.07 207.312 456.445 206.75C455.695 206.094 454.688 205.766 453.422 205.766C452.297 205.766 451.414 206.055 450.773 206.633C450.148 207.195 449.836 207.984 449.836 209C449.836 210.125 450.25 211.016 451.078 211.672C451.922 212.328 453.586 213.062 456.07 213.875C458.773 214.75 460.867 215.773 462.352 216.945C464.508 218.664 465.586 220.977 465.586 223.883C465.586 226.789 464.586 229.148 462.586 230.961C460.508 232.836 457.734 233.773 454.266 233.773C450.125 233.773 447.039 232.219 445.008 229.109C443.977 227.516 443.336 225.695 443.086 223.648ZM482.086 200.281C485.883 200.281 489.008 201.656 491.461 204.406C494.258 207.516 495.656 211.719 495.656 217.016C495.656 221.547 494.602 225.336 492.492 228.383C491.242 230.18 489.664 231.555 487.758 232.508C486.055 233.352 484.164 233.773 482.086 233.773C477.555 233.773 474.016 231.938 471.469 228.266C469.406 225.297 468.375 221.469 468.375 216.781C468.375 211.688 469.711 207.625 472.383 204.594C474.914 201.719 478.148 200.281 482.086 200.281ZM482.039 206.141C479.914 206.141 478.273 207.133 477.117 209.117C475.867 211.273 475.242 213.844 475.242 216.828C475.242 220.109 475.859 222.812 477.094 224.938C477.609 225.828 478.328 226.547 479.25 227.094C480.172 227.641 481.125 227.914 482.109 227.914C483.047 227.914 483.93 227.672 484.758 227.188C485.602 226.688 486.281 226.008 486.797 225.148C488.125 222.945 488.789 220.203 488.789 216.922C488.789 213.828 488.18 211.227 486.961 209.117C485.805 207.133 484.164 206.141 482.039 206.141ZM499.992 233V201.008H512.297C515.516 201.008 518.008 201.711 519.773 203.117C521.789 204.727 522.797 207 522.797 209.938C522.797 211.766 522.398 213.367 521.602 214.742C520.82 216.102 519.688 217.148 518.203 217.883C519.547 218.352 520.555 219.164 521.227 220.32C521.648 221.023 521.945 221.875 522.117 222.875C522.289 223.859 522.469 225.719 522.656 228.453C522.75 229.703 522.867 230.625 523.008 231.219C523.148 231.797 523.398 232.391 523.758 233H516.68C516.445 232.438 516.297 231.938 516.234 231.5C516.172 231.047 516.055 229.562 515.883 227.047C515.758 225.469 515.57 224.266 515.32 223.438C515.086 222.594 514.734 221.93 514.266 221.445C513.594 220.773 512.438 220.438 510.797 220.438H506.859V233H499.992ZM506.859 215.258H510.633C512.711 215.258 514.141 214.82 514.922 213.945C515.594 213.18 515.93 212.117 515.93 210.758C515.93 209.273 515.516 208.188 514.688 207.5C513.859 206.812 512.555 206.469 510.773 206.469H506.859V215.258Z" fill="white"/>
<path d="M201.371 183V167.004H206.305C208.477 167.004 210.184 167.582 211.426 168.738C212.949 170.145 213.711 172.215 213.711 174.949C213.711 177.621 212.992 179.691 211.555 181.16C210.773 181.965 209.871 182.488 208.848 182.73C208.121 182.91 207.27 183 206.293 183H201.371ZM204.805 180.07H206.34C207.559 180.07 208.445 179.781 209 179.203C209.852 178.305 210.277 176.883 210.277 174.938C210.277 173.328 209.918 172.066 209.199 171.152C208.566 170.34 207.582 169.934 206.246 169.934H204.805V180.07ZM215.879 183V167.004H226.086V169.934H219.312V173.355H225.5V176.145H219.312V180.07H226.227V183H215.879ZM228.406 167.004H231.699V176.32C231.699 177.844 231.91 178.906 232.332 179.508C232.785 180.141 233.48 180.457 234.418 180.457C235.434 180.457 236.125 180.023 236.492 179.156C236.75 178.562 236.879 177.613 236.879 176.309V167.004H240.312V176.133C240.312 177.57 240.211 178.66 240.008 179.402C239.656 180.676 239.023 181.66 238.109 182.355C237.203 183.043 235.949 183.387 234.348 183.387C232.051 183.387 230.406 182.613 229.414 181.066C229.047 180.488 228.785 179.824 228.629 179.074C228.48 178.324 228.406 177.328 228.406 176.086V167.004ZM245.914 183V169.934H242.035V167.004H253.25V169.934H249.348V183H245.914ZM254.387 178.324H257.844C257.938 178.949 258.082 179.414 258.277 179.719C258.684 180.344 259.27 180.656 260.035 180.656C260.652 180.656 261.152 180.473 261.535 180.105C261.918 179.738 262.109 179.258 262.109 178.664C262.109 178.047 261.848 177.523 261.324 177.094C261.105 176.914 260.879 176.773 260.645 176.672C260.418 176.562 259.934 176.375 259.191 176.109C257.879 175.648 256.93 175.188 256.344 174.727C255.18 173.805 254.598 172.598 254.598 171.105C254.598 169.824 255.004 168.781 255.816 167.977C256.723 167.086 257.977 166.641 259.578 166.641C261.117 166.641 262.355 167.035 263.293 167.824C264.23 168.613 264.801 169.746 265.004 171.223H261.652C261.574 170.605 261.379 170.156 261.066 169.875C260.691 169.547 260.188 169.383 259.555 169.383C258.992 169.383 258.551 169.527 258.23 169.816C257.918 170.098 257.762 170.492 257.762 171C257.762 171.562 257.969 172.008 258.383 172.336C258.805 172.664 259.637 173.031 260.879 173.438C262.23 173.875 263.277 174.387 264.02 174.973C265.098 175.832 265.637 176.988 265.637 178.441C265.637 179.895 265.137 181.074 264.137 181.98C263.098 182.918 261.711 183.387 259.977 183.387C257.906 183.387 256.363 182.609 255.348 181.055C254.832 180.258 254.512 179.348 254.387 178.324ZM276.512 176.801H279.945C279.82 178.496 279.344 179.914 278.516 181.055C277.383 182.609 275.789 183.387 273.734 183.387C271.789 183.387 270.246 182.719 269.105 181.383C267.723 179.75 267.031 177.637 267.031 175.043C267.031 172.496 267.699 170.426 269.035 168.832C270.262 167.371 271.855 166.641 273.816 166.641C275.918 166.641 277.555 167.484 278.727 169.172C279.391 170.133 279.766 171.203 279.852 172.383L276.453 172.395C276.352 171.77 276.184 171.262 275.949 170.871C275.449 170.004 274.723 169.57 273.77 169.57C272.707 169.57 271.895 170.074 271.332 171.082C270.754 172.129 270.465 173.438 270.465 175.008C270.465 176.602 270.766 177.93 271.367 178.992C271.914 179.969 272.703 180.457 273.734 180.457C274.539 180.457 275.168 180.16 275.621 179.566C276.074 178.965 276.371 178.043 276.512 176.801ZM281.926 183V167.004H285.359V173.086H290.457V167.004H293.891V183H290.457V176.016H285.359V183H281.926ZM296.621 183V167.004H306.828V169.934H300.055V173.355H306.242V176.145H300.055V180.07H306.969V183H296.621ZM316.93 183V169.934H313.051V167.004H324.266V169.934H320.363V183H316.93ZM326.176 183V167.004H336.383V169.934H329.609V173.355H335.797V176.145H329.609V180.07H336.523V183H326.176ZM338.902 183V167.004H342.336V180.023H348.617V183H338.902ZM350.715 183V167.004H360.922V169.934H354.148V173.355H360.336V176.145H354.148V180.07H361.062V183H350.715ZM363.441 183V167.004H366.875V173.051L371.633 167.004H375.465L370.016 173.602L375.91 183H372.066L367.848 176.25L366.875 177.422V183H363.441ZM383.551 166.641C385.449 166.641 387.012 167.328 388.238 168.703C389.637 170.258 390.336 172.359 390.336 175.008C390.336 177.273 389.809 179.168 388.754 180.691C388.129 181.59 387.34 182.277 386.387 182.754C385.535 183.176 384.59 183.387 383.551 183.387C381.285 183.387 379.516 182.469 378.242 180.633C377.211 179.148 376.695 177.234 376.695 174.891C376.695 172.344 377.363 170.312 378.699 168.797C379.965 167.359 381.582 166.641 383.551 166.641ZM383.527 169.57C382.465 169.57 381.645 170.066 381.066 171.059C380.441 172.137 380.129 173.422 380.129 174.914C380.129 176.555 380.438 177.906 381.055 178.969C381.312 179.414 381.672 179.773 382.133 180.047C382.594 180.32 383.07 180.457 383.562 180.457C384.031 180.457 384.473 180.336 384.887 180.094C385.309 179.844 385.648 179.504 385.906 179.074C386.57 177.973 386.902 176.602 386.902 174.961C386.902 173.414 386.598 172.113 385.988 171.059C385.41 170.066 384.59 169.57 383.527 169.57ZM392.504 183V167.004H397.156L400.004 177.961L402.781 167.004H407.398V183H404.105V171.879L401.375 183H398.586L395.797 172.02V183H392.504Z" fill="white"/>
<path d="M150.31 184.509C146.576 165.751 130.004 152 110.409 152C97.0334 152 84.6271 158.521 77.0575 169.272C74.6264 168.436 72.0746 167.997 69.491 167.997C57.8664 167.997 48.2121 176.53 46.5247 187.617C35.4213 189.902 27 199.76 27 211.378C27 224.757 37.954 235.641 51.4154 235.641C53.0997 235.641 54.7776 235.469 56.4301 235.113C65.0579 243.017 76.1581 247.335 87.9797 247.335C96.4137 247.335 104.574 245.105 111.769 240.865C115.154 242.445 118.853 243.268 122.609 243.268C129.578 243.268 136.115 240.506 140.923 235.612C141.879 235.711 142.845 235.768 143.792 235.768C158.242 235.768 170 224.089 170 209.729C170 197.672 161.753 187.398 150.31 184.509Z" fill="#FEF4F9"/>
<path d="M66.6797 208.963V202.029H70.1721H73.6138V208.963H66.6797ZM87.8251 208.963V202.029H91.1428H94.7592V208.963H87.8251ZM108.63 208.963V202.029H112.12H115.565V208.963H108.63ZM129.433 208.963V202.029H133.208H136.367V208.963H129.433Z" fill="#E20074"/>
<path d="M94.4162 186.277H67.02L66.6768 198.359L68.4945 198.674C68.8345 195.114 69.7688 192.47 71.2974 190.748C72.9085 188.943 75.1267 188.002 77.9772 187.92V213.2C77.9772 215.408 77.6689 216.841 77.0238 217.502C76.4772 218.068 75.5493 218.414 74.2464 218.542C73.8587 218.573 73.1977 218.589 72.2634 218.589V220.521H89.1696V218.589C88.2353 218.589 87.5743 218.573 87.1866 218.542C85.8805 218.414 84.9557 218.068 84.4092 217.502C83.764 216.841 83.4526 215.408 83.4526 213.2V187.92C86.3031 187.999 88.5245 188.943 90.1356 190.748C91.6674 192.474 92.6016 195.114 92.9385 198.674L94.7562 198.359L94.4162 186.277Z" fill="#E20074"/>
</svg>
