<svg width="600" height="400" viewBox="0 0 600 400" fill="none" xmlns="http://www.w3.org/2000/svg">
<rect width="600" height="400" fill="#E20074"/>
<path d="M200.742 233V201.008H210.891C213.422 201.008 215.352 201.242 216.68 201.711C218.633 202.43 220.148 203.672 221.227 205.438C222.148 206.969 222.609 208.828 222.609 211.016C222.609 214.688 221.305 217.5 218.695 219.453C216.883 220.828 214.32 221.516 211.008 221.516H207.609V233H200.742ZM207.609 215.938H210.938C212.766 215.938 214.031 215.508 214.734 214.648C215.406 213.82 215.742 212.719 215.742 211.344C215.742 209.781 215.266 208.602 214.312 207.805C213.578 207.18 212.344 206.867 210.609 206.867H207.609V215.938ZM226.57 233V201.008H238.875C242.094 201.008 244.586 201.711 246.352 203.117C248.367 204.727 249.375 207 249.375 209.938C249.375 211.766 248.977 213.367 248.18 214.742C247.398 216.102 246.266 217.148 244.781 217.883C246.125 218.352 247.133 219.164 247.805 220.32C248.227 221.023 248.523 221.875 248.695 222.875C248.867 223.859 249.047 225.719 249.234 228.453C249.328 229.703 249.445 230.625 249.586 231.219C249.727 231.797 249.977 232.391 250.336 233H243.258C243.023 232.438 242.875 231.938 242.812 231.5C242.75 231.047 242.633 229.562 242.461 227.047C242.336 225.469 242.148 224.266 241.898 223.438C241.664 222.594 241.312 221.93 240.844 221.445C240.172 220.773 239.016 220.438 237.375 220.438H233.438V233H226.57ZM233.438 215.258H237.211C239.289 215.258 240.719 214.82 241.5 213.945C242.172 213.18 242.508 212.117 242.508 210.758C242.508 209.273 242.094 208.188 241.266 207.5C240.438 206.812 239.133 206.469 237.352 206.469H233.438V215.258ZM255.07 233V201.008H261.938V233H255.07ZM281.18 233H273.539L264.797 201.008H272.016L277.523 224.07L283.031 201.008H290.039L281.18 233ZM300.492 201.008H307.523L317.648 233H310.5L308.508 225.852H299.391L297.375 233H290.344L300.492 201.008ZM300.867 220.672H307.078L303.984 209.633L300.867 220.672ZM338.367 220.602H345.234C344.984 223.992 344.031 226.828 342.375 229.109C340.109 232.219 336.922 233.773 332.812 233.773C328.922 233.773 325.836 232.438 323.555 229.766C320.789 226.5 319.406 222.273 319.406 217.086C319.406 211.992 320.742 207.852 323.414 204.664C325.867 201.742 329.055 200.281 332.977 200.281C337.18 200.281 340.453 201.969 342.797 205.344C344.125 207.266 344.875 209.406 345.047 211.766L338.25 211.789C338.047 210.539 337.711 209.523 337.242 208.742C336.242 207.008 334.789 206.141 332.883 206.141C330.758 206.141 329.133 207.148 328.008 209.164C326.852 211.258 326.273 213.875 326.273 217.016C326.273 220.203 326.875 222.859 328.078 224.984C329.172 226.938 330.75 227.914 332.812 227.914C334.422 227.914 335.68 227.32 336.586 226.133C337.492 224.93 338.086 223.086 338.367 220.602ZM346.594 201.008H354.234L360 213.664L365.766 201.008H373.289L363.375 220.625V233H356.508V220.531L346.594 201.008ZM392.836 201.008H399.867L409.992 233H402.844L400.852 225.852H391.734L389.719 233H382.688L392.836 201.008ZM393.211 220.672H399.422L396.328 209.633L393.211 220.672ZM430.711 220.602H437.578C437.328 223.992 436.375 226.828 434.719 229.109C432.453 232.219 429.266 233.773 425.156 233.773C421.266 233.773 418.18 232.438 415.898 229.766C413.133 226.5 411.75 222.273 411.75 217.086C411.75 211.992 413.086 207.852 415.758 204.664C418.211 201.742 421.398 200.281 425.32 200.281C429.523 200.281 432.797 201.969 435.141 205.344C436.469 207.266 437.219 209.406 437.391 211.766L430.594 211.789C430.391 210.539 430.055 209.523 429.586 208.742C428.586 207.008 427.133 206.141 425.227 206.141C423.102 206.141 421.477 207.148 420.352 209.164C419.195 211.258 418.617 213.875 418.617 217.016C418.617 220.203 419.219 222.859 420.422 224.984C421.516 226.938 423.094 227.914 425.156 227.914C426.766 227.914 428.023 227.32 428.93 226.133C429.836 224.93 430.43 223.086 430.711 220.602ZM449.086 201.008H456.117L466.242 233H459.094L457.102 225.852H447.984L445.969 233H438.938L449.086 201.008ZM449.461 220.672H455.672L452.578 209.633L449.461 220.672ZM469.148 233V201.008H479.016C483.359 201.008 486.773 202.164 489.258 204.477C492.305 207.289 493.828 211.43 493.828 216.898C493.828 222.242 492.391 226.383 489.516 229.32C487.953 230.93 486.148 231.977 484.102 232.461C482.648 232.82 480.945 233 478.992 233H469.148ZM476.016 227.141H479.086C481.523 227.141 483.297 226.562 484.406 225.406C486.109 223.609 486.961 220.766 486.961 216.875C486.961 213.656 486.242 211.133 484.805 209.305C483.539 207.68 481.57 206.867 478.898 206.867H476.016V227.141ZM498.164 233V201.008H518.578V206.867H505.031V213.711H517.406V219.289H505.031V227.141H518.859V233H498.164ZM523.617 233V201.008H532.922L538.617 222.922L544.172 201.008H553.406V233H546.82V210.758L541.359 233H535.781L530.203 211.039V233H523.617ZM556.312 201.008H563.953L569.719 213.664L575.484 201.008H583.008L573.094 220.625V233H566.227V220.531L556.312 201.008Z" fill="white"/>
<path d="M201.371 183V167.004H206.305C208.477 167.004 210.184 167.582 211.426 168.738C212.949 170.145 213.711 172.215 213.711 174.949C213.711 177.621 212.992 179.691 211.555 181.16C210.773 181.965 209.871 182.488 208.848 182.73C208.121 182.91 207.27 183 206.293 183H201.371ZM204.805 180.07H206.34C207.559 180.07 208.445 179.781 209 179.203C209.852 178.305 210.277 176.883 210.277 174.938C210.277 173.328 209.918 172.066 209.199 171.152C208.566 170.34 207.582 169.934 206.246 169.934H204.805V180.07ZM215.879 183V167.004H226.086V169.934H219.312V173.355H225.5V176.145H219.312V180.07H226.227V183H215.879ZM228.406 167.004H231.699V176.32C231.699 177.844 231.91 178.906 232.332 179.508C232.785 180.141 233.48 180.457 234.418 180.457C235.434 180.457 236.125 180.023 236.492 179.156C236.75 178.562 236.879 177.613 236.879 176.309V167.004H240.312V176.133C240.312 177.57 240.211 178.66 240.008 179.402C239.656 180.676 239.023 181.66 238.109 182.355C237.203 183.043 235.949 183.387 234.348 183.387C232.051 183.387 230.406 182.613 229.414 181.066C229.047 180.488 228.785 179.824 228.629 179.074C228.48 178.324 228.406 177.328 228.406 176.086V167.004ZM245.914 183V169.934H242.035V167.004H253.25V169.934H249.348V183H245.914ZM254.387 178.324H257.844C257.938 178.949 258.082 179.414 258.277 179.719C258.684 180.344 259.27 180.656 260.035 180.656C260.652 180.656 261.152 180.473 261.535 180.105C261.918 179.738 262.109 179.258 262.109 178.664C262.109 178.047 261.848 177.523 261.324 177.094C261.105 176.914 260.879 176.773 260.645 176.672C260.418 176.562 259.934 176.375 259.191 176.109C257.879 175.648 256.93 175.188 256.344 174.727C255.18 173.805 254.598 172.598 254.598 171.105C254.598 169.824 255.004 168.781 255.816 167.977C256.723 167.086 257.977 166.641 259.578 166.641C261.117 166.641 262.355 167.035 263.293 167.824C264.23 168.613 264.801 169.746 265.004 171.223H261.652C261.574 170.605 261.379 170.156 261.066 169.875C260.691 169.547 260.188 169.383 259.555 169.383C258.992 169.383 258.551 169.527 258.23 169.816C257.918 170.098 257.762 170.492 257.762 171C257.762 171.562 257.969 172.008 258.383 172.336C258.805 172.664 259.637 173.031 260.879 173.438C262.23 173.875 263.277 174.387 264.02 174.973C265.098 175.832 265.637 176.988 265.637 178.441C265.637 179.895 265.137 181.074 264.137 181.98C263.098 182.918 261.711 183.387 259.977 183.387C257.906 183.387 256.363 182.609 255.348 181.055C254.832 180.258 254.512 179.348 254.387 178.324ZM276.512 176.801H279.945C279.82 178.496 279.344 179.914 278.516 181.055C277.383 182.609 275.789 183.387 273.734 183.387C271.789 183.387 270.246 182.719 269.105 181.383C267.723 179.75 267.031 177.637 267.031 175.043C267.031 172.496 267.699 170.426 269.035 168.832C270.262 167.371 271.855 166.641 273.816 166.641C275.918 166.641 277.555 167.484 278.727 169.172C279.391 170.133 279.766 171.203 279.852 172.383L276.453 172.395C276.352 171.77 276.184 171.262 275.949 170.871C275.449 170.004 274.723 169.57 273.77 169.57C272.707 169.57 271.895 170.074 271.332 171.082C270.754 172.129 270.465 173.438 270.465 175.008C270.465 176.602 270.766 177.93 271.367 178.992C271.914 179.969 272.703 180.457 273.734 180.457C274.539 180.457 275.168 180.16 275.621 179.566C276.074 178.965 276.371 178.043 276.512 176.801ZM281.926 183V167.004H285.359V173.086H290.457V167.004H293.891V183H290.457V176.016H285.359V183H281.926ZM296.621 183V167.004H306.828V169.934H300.055V173.355H306.242V176.145H300.055V180.07H306.969V183H296.621ZM316.93 183V169.934H313.051V167.004H324.266V169.934H320.363V183H316.93ZM326.176 183V167.004H336.383V169.934H329.609V173.355H335.797V176.145H329.609V180.07H336.523V183H326.176ZM338.902 183V167.004H342.336V180.023H348.617V183H338.902ZM350.715 183V167.004H360.922V169.934H354.148V173.355H360.336V176.145H354.148V180.07H361.062V183H350.715ZM363.441 183V167.004H366.875V173.051L371.633 167.004H375.465L370.016 173.602L375.91 183H372.066L367.848 176.25L366.875 177.422V183H363.441ZM383.551 166.641C385.449 166.641 387.012 167.328 388.238 168.703C389.637 170.258 390.336 172.359 390.336 175.008C390.336 177.273 389.809 179.168 388.754 180.691C388.129 181.59 387.34 182.277 386.387 182.754C385.535 183.176 384.59 183.387 383.551 183.387C381.285 183.387 379.516 182.469 378.242 180.633C377.211 179.148 376.695 177.234 376.695 174.891C376.695 172.344 377.363 170.312 378.699 168.797C379.965 167.359 381.582 166.641 383.551 166.641ZM383.527 169.57C382.465 169.57 381.645 170.066 381.066 171.059C380.441 172.137 380.129 173.422 380.129 174.914C380.129 176.555 380.438 177.906 381.055 178.969C381.312 179.414 381.672 179.773 382.133 180.047C382.594 180.32 383.07 180.457 383.562 180.457C384.031 180.457 384.473 180.336 384.887 180.094C385.309 179.844 385.648 179.504 385.906 179.074C386.57 177.973 386.902 176.602 386.902 174.961C386.902 173.414 386.598 172.113 385.988 171.059C385.41 170.066 384.59 169.57 383.527 169.57ZM392.504 183V167.004H397.156L400.004 177.961L402.781 167.004H407.398V183H404.105V171.879L401.375 183H398.586L395.797 172.02V183H392.504Z" fill="white"/>
<path d="M107.5 122H40V212.983C40 250.25 70.233 278.316 107.5 278.316C144.767 278.316 175 250.25 175 212.983V122H107.5ZM160.789 212.983C160.789 241.83 136.809 264.105 107.5 264.105C78.1908 264.105 54.2106 241.83 54.2106 212.983V136.211H160.789V212.983Z" fill="#F39ECA"/>
<path d="M93.2896 189.771C93.2985 191.622 93.6751 193.453 94.3971 195.157C95.1192 196.86 96.1727 198.402 97.4954 199.693C98.8184 200.983 100.384 201.996 102.102 202.673C103.82 203.35 105.654 203.676 107.499 203.634C111.189 203.636 114.735 202.197 117.387 199.624C120.039 197.05 121.589 193.542 121.709 189.842V180.541H93.2896V189.771ZM123.947 208.836H90.9094C88.8583 208.864 86.8328 209.298 84.9491 210.112C83.0653 210.926 81.3601 212.106 79.9312 213.582C78.5025 215.058 77.378 216.803 76.6223 218.716C75.8667 220.629 75.4945 222.673 75.5274 224.73V228.579H139.471V224.73C139.504 222.664 139.128 220.611 138.366 218.691C137.603 216.772 136.469 215.022 135.029 213.544C133.589 212.067 131.872 210.89 129.975 210.082C128.079 209.273 126.042 208.85 123.982 208.836H123.947ZM87.9964 177.512C87.9374 176.475 87.5665 175.481 86.9321 174.66C86.2979 173.839 85.4303 173.231 84.4441 172.915V166.287H93.2896V175.125H121.709V166.216H130.519V160.87H80.6785V172.88C79.7185 173.209 78.883 173.827 78.2856 174.649C77.688 175.472 77.3577 176.459 77.3391 177.477V189.379H87.9964V177.512Z" fill="#FEF4F9"/>
<path opacity="0.3" d="M107.583 122V278.316C107.867 278.316 107.583 278.316 107.583 278.316C70.27 278.316 40 250.25 40 212.983V122H107.583Z" fill="#FEF4F9"/>
</svg>
